<mxfile host="www.draw.io" modified="2020-01-21T23:48:24.705Z" agent="Mozilla/5.0 (Macintosh; Intel Mac OS X 10_15_2) AppleWebKit/537.36 (KHTML, like Gecko) Chrome/79.0.3945.130 Safari/537.36" etag="BRqXFDHizxxXgil1wnKC" version="12.5.5" type="github">
  <diagram id="j-PZqX_yK8fa3RQV4mo0" name="Page-1">
    <mxGraphModel dx="1186" dy="773" grid="1" gridSize="10" guides="1" tooltips="1" connect="1" arrows="1" fold="1" page="1" pageScale="1" pageWidth="1600" pageHeight="900" math="0" shadow="0">
      <root>
        <mxCell id="0"/>
        <mxCell id="1" parent="0"/>
        <mxCell id="xjQEjST6JnN3BsZdCasw-2" value="" style="rounded=0;whiteSpace=wrap;html=1;" vertex="1" parent="1">
          <mxGeometry x="320" y="200" width="120" height="80" as="geometry"/>
        </mxCell>
        <mxCell id="xjQEjST6JnN3BsZdCasw-3" value="" style="rounded=0;whiteSpace=wrap;html=1;" vertex="1" parent="1">
          <mxGeometry x="560" y="200" width="120" height="80" as="geometry"/>
        </mxCell>
        <mxCell id="xjQEjST6JnN3BsZdCasw-4" value="" style="rounded=0;whiteSpace=wrap;html=1;" vertex="1" parent="1">
          <mxGeometry x="560" y="400" width="120" height="80" as="geometry"/>
        </mxCell>
        <mxCell id="xjQEjST6JnN3BsZdCasw-5" value="" style="rounded=0;whiteSpace=wrap;html=1;" vertex="1" parent="1">
          <mxGeometry x="320" y="400" width="120" height="80" as="geometry"/>
        </mxCell>
        <mxCell id="xjQEjST6JnN3BsZdCasw-6" value="" style="rounded=0;whiteSpace=wrap;html=1;" vertex="1" parent="1">
          <mxGeometry x="560" y="600" width="120" height="80" as="geometry"/>
        </mxCell>
        <mxCell id="xjQEjST6JnN3BsZdCasw-7" value="" style="rounded=0;whiteSpace=wrap;html=1;" vertex="1" parent="1">
          <mxGeometry x="320" y="600" width="120" height="80" as="geometry"/>
        </mxCell>
        <mxCell id="xjQEjST6JnN3BsZdCasw-9" value="" style="shape=image;verticalLabelPosition=bottom;labelBackgroundColor=#ffffff;verticalAlign=top;aspect=fixed;imageAspect=0;image=data:image/png,iVBORw0KGgoAAAANSUhEUgAAA88AAAKICAIAAADBw1/0AAAAAXNSR0IArs4c6QAAAARnQU1BAACxjwv8YQUAAAAJcEhZcwAADsMAAA7DAcdvqGQAANALSURBVHhe7L0HnB5Vvf8f70//1yxyReAqKl6wXu5VFLmabJYiioWqcBXlWgNIFCvXwkVESEI6JcFCh4BEEZJAQirpjfTeNtuTzfaU3U2y2dTN/ztzzpw5beaZp8yzT/m8X+eVzJw+85znOe85z+w8fU4BAAAAAAAA4gG2DQAAAAAAQFzAtgEAAAAAAIgL2DYAIIc4evTowYMH+Q4AAACQ/8C2AQA5wcyZM2+88cYPfvCD55xzTv/+/UeMGHHgwAGeBtLm5MmTfAsAAEB2gW0DAHqf3/zmN30MPv7xj9fW1vIcIFUmTJhw7bXXfvSjH73wwgtvueWWlStX8gSQfarGlTlDe9BMvg8AKApg2wAkBZsty8ZV8X1i5qDg+ZOl+dnZvo+bokcGobTqzdtepLNLfaC6rNlyeXp/6qmnnC7a+PSnP3306FGeDyRJd3f3jTfeyE+lx1ve8paHH36Y58g+/A00aJA7LA2kccpy8gjbe8QypvX3m4FSaTi8p8F1pYL2dmRvV/1Ny44iUicBAHkBbBuAZNAmSxfL3MiiDMrGjdMS3FIBuQ3U6Zd3RUzTzj7tOP/JGW09DiS8J0HiYZQKymiDjPC8887jBW1MmjSJZwVJMmhQ4Os5bdo0ninLWN4tOnzIyvAR5aaEji5WfXAWVjdvXmrI0iGWGqG1BCg18CZFc84+7VBFUg8inCNOWAes5aVD5kRpBgCQJrBtAJJBn92cmdQyNwZMgp5tU97oE6qoTMvM501pLqeMtMfnbw99eg8loN8csw5z7paI1uTmzZt5/gB++tOf8qwgGSoqKvgZtPGZz3ymp6eHZ80ibISVlQWPGzFs2ODiu+ZIYwnhI5bhvkWUjFTW3edvHnk7fFBHG9MM3qL0BiUivR1ZyWTakuHtGsX9/vjH6x1rqm0BAKIB2wYgCfiE5VM2aNA4toCoz1dsHpOmNHfTm0dZlHWO0+Zjbz5UJ22CJxjxGlp1qRAwffsng/rgHZiaEKHVdevW8cwBDBo0iGcFyRByfw7xtre9rb6+nmfNHvIwCcYb8z6DxrlRrCBLDqwkdMT7VftvnIACbl8Tvb0kWDVeAf4m0Mv77RNBhxDtLNnhDejtsipZrNpRJQkAEA+wbQAio0xkfDYVyHOjMqXK8K/2mTsEzG+8MKvPa8WSV20kcGpWqjOZOSjRNMu7oGfzesYrZrt+KwGlTDo7O8866yw3sx2yRp4VJMNDDz3Ez2AA27dv51mzhTdkaVQEvEXYeHESy8bNdLOw9wq3bZnAEe81Yx17tjQWp2fXR3RC5Gr48DdL8/bdhMB+hjVNhUL6xKvUy7IKvYaM6pM+VABAksC2AYiKPFGKmVJ8JS7PVd6cZ+DZNl/bNudZwm+GT9lq3QJrI2ZOvzoTUYU11YX3Qe8pLymi2b6cS88Rwr333utktfHe9763vb2d5wPJMG3aNH4SbZx55pl0ncOzZgkxnhMNCmfsWG2bjVM2tILHrDf2LO3wLqhlzcFL+JFebTK2I2B1U4q1EQ6vTEqz5GZRtvI8s71ur3K9c3qbbiVyJrNTAIDMAtsGICLeREfQtMT23ClLJESYrVheysgmuOBJ2yeoVmVqVQoptQbPpIn77eUwuqlXamuEFw6s3OfkyZPmozOI008/ffHixTxTNH72s59NmTKF7xQ3hw4dOvfcc/mpNMj+/Tl8jDjQeJL2ZNhIMxMTrm3r7xoPeej61drKqnEsrzHww2DVsOvvwFHP+6Cnu2VFa7YOEeIY7bWLZL3XWnVqWw4BnQIAZAzYNgCREFOZDJuylCQ+Y1mzU5o/8bEZzpzgeEmqmnLo86YMnyLlLDzKQUQHzKSig4FNyIdgL+0X9Q/LR88TzJEjR9ra2kaNGvWpT33q//2//0elzjzzzJtuumnbtm08RzR6eno++MEPzpo1i+8XPTNmzHBeA4MPf/jDdMJ5pghQPS+99BLfSRVnIHJpjjIoxPhjmdkwZiNM3ha7xiB1yssNedkclKw8wRIXqZ8e0ca7rTEDy9vJ7729BfnoHOTCanVuTrWSFI4WAJAUsG0AouHMSHzC8jxA2fVX35xZy8uiQPn9iU+dAgW8YISZj8+vRk6pow48m9wQj3Iw2mdIOQRmDV7TlibEgQQ04DN+/PhvfetbN9xww69+9aslS5bs3Llz8+bNe/fu5cnJ0NjYeP7557e0tPB9QC/DzJkXX3yx+1Jwrrnmml27dvHkaNx4442/+MUv+E5aiIFjfYMQ3phS0mkQmSPSG1ksZ6I3DMtl/fNkdTC7yFHudsJhLBrgu0Hw4wjPp9UlnQt7OV6p1F9/V8Twom5l6tli9atxAICMAtsGIFn45KdNhu4uzWts0pLiHMQuL+uhzXBiohQFQ1Cm2GB4Nq9GqQMBJaUcrJDolVSCZXL3bf2IeiCjR48mP/7whz/Mcn/yk59M58cj586d+/GPf5zvFD2zZs36/e9//8gjj7z88svTp09/9NFHn3jiiTVr1vDkZOjfv//EiRP5TlqwgUFjxR1A6gj0o9xc/AdwBs2keCeWRfJ7UKSSbCgmfsfMHOTkYR1Qcos+OVtuijS6+XaC+lkVEToRLac4JJ6bYS/jZVFSeae9WJbH2Xa3pJNHyAcLAIgJ2DYASWGZfMXcKCGmOxnKwvOyP5aUZzhpXo048fESiXLzbK60+Ki99ZCzBB0Pj5f66yB6ocTbW/Fgf8Z3+eWX9+3bl+UnTj/99HvuuSe1h9M9+OCDV199Nd8pbh5//PH//M///Ld/+zc6pWedddaECRN4QvIcPnz4ox/9aLJ39QTAhgeNFusbhKAkJ48znlheNob4sCIZpnHG30Te4PKGnDHavIpk5EoFfmecBnh9PI+bptci4xU2mreiVh6AcXICsgceOSHqYIliVzoUWxwAIBZg2wBEJmByY5OWGmnMlw6UxZZXyR194uO9SVTA67QgoEDCPvgV8e6LEm5+/YgT9KulpeXss8+mfCSFJNysjOBf/uVfvvOd70yaNGn37t28QASoyG9+8xu+U8TMmzfvLW95y2WXXcbPpvt07bvuumvPnj08RzJs3bqVbJucm++nBRtENDbc4aKOET2K5XUGm5tivsHk4vrwc7GMQb/SIKpmjhuk3ItlrZtXzZLCqtPg76LwEn6DliPwcDOFpLs5AtoRDYSWBwBkDNg2ANEQnsD3fWwzrhYndm15CbfygJkxCD5vJ5wvxcyaoIEIfaAswc2Jdux1nDhxYuXKla2trWz3Bz/4Ac/ep8/FF1/85S9/mQyb70ucdtppn/70p2+66aZf//rXI0eOfPjhh8eNG7du3TpWiUa/fv3SWcQtDPbu3XvOOefQqfvKV75SUlLCTiOD4n/3u99t2rSJZ43GK6+8UlpayncAAAAkD2wbAJAN2A+J33///bS9devWt7zlLUwBGR/4wAeuvvrqiy66iO+H8ta3vnXJkiWsWkFXV9cHP/jBzZs38/1i5fbbb2dn6T3vec/111/PvkDQ+K//+q+f//zn48ePX7p06Y4dO+pdDh48yKtQ+f3vf//tb3+b7wAAAEge2DYAIBts376dPO8Pf/gDbd9xxx1M+2Te9ra31dbWzp49+7rrrnv729/OYwMgBWTVCsizzz//fHJuvl800Int16/f/Pnz2fY//dM/8XPkPkjxmmuu+dSnPsX3bVB+OtsEXfC8/vrrrE6ZG2+8ccSIEXwHAABA8sC2AQDZoLy8nNxu2LBhPT097373u5nqyVx00UU866lTNTU1Tz311P/8z/9ccMEF2u0QxHve856tW7fyrB6TJ0/u378/3ykmyLPpnDzzzDO0/aMf/YidIpmrrrrqySef/MQnPsH3g/nYxz7G6pS5+OKLp0+fzncAAAAkD2wbAJANmG2PHTt206ZNzO00vvOd7/CsKkeOHCH5XrVq1fXXX//Od77zjDPO+NSnPvWtb33rayqXXXbZhg0beJliYvHixXT2/vGPf5w8efKss85iJ1OGndjjx49PnTr129/+9nvf+16eYHDdddexOgVU57nnnkvnn+8DAABIHtg2AEVE8J96xg6z7T+7uGqn8/Of/5zlnD179t133/2HP/zhvvvuGzJkyIgRIx588MFHHnnkRz/60TXXXENG+OUvf/nSSy8lvRbQ7pVXXklFNKie4cOHd3d3s5oLEmbb06ZNW7lyJTuTGk899RTP6nL06NG1a9c+88wzv/71r2+66aZPf/rTPF+fPnTC//a3v02QeOihh/7nf/6Hl4wX9le2bGzK25nFrdn9O173veA0YW4YsP4k+WfMAADgAdsGIDPwR3J4M7K2m1GYM7OqhT34kb5QGLBMcVhMQsTa9o9//GPaMKF4ltN6V3fKlJSUJPUr5XkHs+2ZM2fSZQk7ZA3xU/YdHR2tra3t7e10+XHy5MkTJ07QxoYNG770pS/RtQr9e/nll39GpV+/ftOnT6cTSAUFLS0tqf3YJ4O/NSTcwcqi2diUt1OH1SLeCWq77MdzFMmGbQMAYgK2DUByqHO2PwXz+IDdjBLdtvXO2knXaiKxdetWamrIkCHXX389a1ZD3MZAIkiZ3/nOd/KEVHnrW9+6bNmywlZtgtn2q6+++q1vfYsduMa8efMo28GDB9/znvf80z/9079I0Ek+++yzzz///POCefe7381ze1Cdb3nLW1K5vYQNUvVtQWPUHYBsrGZyLLIa5bZkvL5ouB0ISFMJqhgAAHRg2wBEJ0Be3WmXp2V4CubTvqhV1wD+q5QmrERAhzWyYtuNjY3kbU888cSll17K21V5//vfv3z58vLy8r179+7bt++MM84gF/zABz5AGyVJctppp/3zP//z2972toaGBt584bJo0SI6e88///yAAQPYmdSYPHkyZTt69Oi9997bv39/HpsG11577S9+8Yv9+/ezDkSGD96A4SbbtrztoA57Ee+9O5Q3ARv5+hvFKeTU6qS6tSf1RmX9SaoIAAD4wLYBiAqbcglZF7wZ3EvN8Izs+USGamXVyf3PJt/5znc2bdr0yU9+0jmkAN7ylrecfvrp119/PXn29773vdGjR2/durWjo4O8OTpk9q+++irVVlXVO0eaTRYuXEhH+uijj/7Hf/yHewp16BzyrKdOvfTSSzw2DcwHwkSCj+Wg0cfeQCxV3mY7XimlEk+pvbeH9h5ku/57x9l3Crr/uzeSWLG82fSaAAAgKWDbAETDm9m9aV/HOtPLE7RXAUNUw6OdjLwMwVL9fQ5FO3FuqpGoY3MD1ljQIcTNN7/5zfLy8sukXxQP4jOf+cwFF1zwhS98gbY/9rGPLV26lFcRmdWrV1PZYrDt/fv3l5WVLVq0iP2EpMl55513++23/+53v3v88cfvuusuupihy54777zzJz/5ycBkuOWWW2666SaqMIWXw8F8SyiwZHnku9vGkDXSpBrlOrw9P9XNPmim+59fobbL4VUHY5QAAIBAYNsARINN3cGTLE/35nZ11zp3s6p4EgmTG+nhJPI6fCjSzU61MkcIXqDzmjbqMMmaN3z961/fvXv3n/70J95wMHQ2SLK/9KUvsd13vetde/bs4bVEg4yQChaDbRNkz3QZc+aZZ7LTFUL//v0vvPDCm2+++Ve/+lUKf+nY2dn5lre8hcye7yeF9g7RYclsMErbAQPYTePvHb9GuQ5vz0/l7x03mv9nQe+fki9r7xUAQEEB2wYgEnxiD55u+aTszdXKrpYmDFsyBpGo7vM9UZJFUEG3Sj+aNWHpHG86jKwZxDe+8Q2SQtq47rrreNsBXHzxxf/+7/8ubJt44YUXWCURKR7bPnHixI033tjW1hZ+iw7xtre97bLLLqNsdG5p96yzzmIvR3R27dqVum3Lo94CG6ks1d823gAyRqJch7envUnKxo2jfynSTR00jqooGzfT/dd4U3lVMPi1bVD/AQAgENg2ANHg827gXMvTvbla3uVSYOKkBhgDjzBlw012JUH4gQ2jn3onpCqzQk9Pz1e/+tU333yzu7u7s7Pz3nvvJec7/fTTP/CBD3z605/+7Gc/+5nPfIb+pe0LL7zwpptu+vCHPyzb9q9//WteUTSKyrbpxB47duyZZ55h5yoIZtt0esVvuSf7LO20bNsbggFvITaUWaK0bb4DfALeO14D6h7hRLjO7MS5qaG27Zd3t5wN1qJUJQAARAC2DUA0PFsNmmnZ1Czmank31DICjIFHGKks2X0Kg6QBzBacfymrW0ZpzOs7R9y1IlUbO3PmzDnttNPe+973nn/++R/5yEcuvvhi8ukzzjjj3HPP/U8JUvD/+7//6+rqes973iPb9sCBA3lF0SiqO0m+/vWvHzlyhDbuu+++EuOH7mX69ev3yU9+Utg2nXxWMCLp2bb9TURD2N1l456lyNt8Rx6sVI27Z7w7lHKWN4+DV537IJNA21Ybdfe8atVGAAAgMbBtACLiK6s80Tqx7pSsTs/qLt/RC7qJAcbAI3iqPrV7fWHeHGbbXtME1cjKOWl+vF53THR2dm7dunXDhg3rPDZu3Pjud7/7Zz/7GW2sl2hoaOjo6NBs++abb+YVRaN4bLu2tvbCCy985plnpk6dOnv27F/+8pd0GUMnlqz6sssuu+KKKz7nMmDAgF/84he33nrrxz72MWHbffv2pbPNK4pAurbtIg1JBhuBLNrcdvDGu0/Ye8darmzcM7xdnuzmtdu297/AjfCr9SqWswAAQDCwbQCiwyZzA3fS5WneBKzumrbg4CYGGAOPUAuW3ft7adeZ/bkG2G1b6q7SD08bzPRsc9555z388MN8R6K1tVWz7e9973s8LRrFY9v/+Mc/2K3YpNH0L7sn55//+Z8vuuiiSy65hK7HGJdeeimJ9fjx49///vcL2/6nf/qniooKXlEEMmLbOYI7+mXbZrdlW98J/G1W+IMJABAPsG0AkkNSVBdvdubxAbuEbtx88g63bbUYX5+TKuUaINk2x63dKas4gmrbLk4NUoXZ5d/+7d9GjhzJdyTa2to02/7Rj37E06JRVHeSaJBVv/Wtb129ejXflxgzZsy5554rbJvYtm0bT4tAIdk2AABkDdg2APmMadv8h/XsAm2x7V4lum3jrySjs3v37re97W1W237wwQdl2/5//+//VVZW8rQIwLYBACAFYNsAgF4jum1bs4VQzLZNTky2vXLlSr4vodl237596+vreVoEYNsAAJACsG0AQK8R3bafffZZnhYN2HYU2072Z4NitG1+x1Sa37vw73py8VXnB9hrd21lDnavW26eZQByFNg2AKDXINseO3Ys35EwbXv69Ok8LRqw7Si2Tec/q08ADMRyi5MbpSpdYpfOH9umnlI/2b8sxoGJbKaNnDXt1sp7oWBtLrQnlpcLABAGbBsAkG22bt366KOPfuUrX6Ep+33ve98999yzePHirq4unmyz7bVr1/K0aBT5X0mSba9atYrvS2i2feGFF/KEaMRl2zZJdo1OjbNkY1IYDlNG4ZlSBZI18ookveQxUnYpT5R21a7y9kUDzj7tUEVGm1JEIGEd8MvrubQHr0jNhdXnI2qWzhwAIDGwbQAygzeZR5kp8wjfEXRbUOBzdfjsu2XLljvvvPPf//3f/7//7/8788wzP/e5zw0ePPjb3/72Bz7wAYr513/915tvvvm1116jnHv27DnnnHO+8IUvuLU6D6prbm5mlUSkmG27vr7+rW996/r16/m+hGbbdIZ5QjTisW3D3AxH5EluvDrG1Cg+RrV9NmR5moOWznZ5o2J8i07otSd+h/OioqBLpNKsZOIW7OiHwJFbls6CwE1wy4Y1rGdw99VDBAAEAdsGIBNEnojzDGn+TnSILGvY9Dt8+HDK8Yc//GHbtm3Hjh3jsS67d++eOHEipX784x+n3ba2tne84x3XXXedU2WfPr/97W9ZtuiQEVLBpB4mne+0tLS8/PLL3/nOd84++2w69ve9732DBg2aNm1ae3s7z2HYNl3q8IRoxGPbwd6mjSlLRjWK5fcHKRuzbE/xTF6CxfEdtTGvKoLXFvwGUKrxSopOcZT2g95FrGxQaji8Ab1d6UioXpbJa0Bqzt10Hz9upWzcODeD3zO1JgBAKLBtADIAm7Wkec6f4TzycVpSBMGOfFjS3G3lscceI1ebP38+31c5ceIEGfbnP/952u7o6PjIRz5Cprhq1ao1a9awDEmxdu3a8847j+yQ7xc0s2bNuvbaa88444ySkhIy6V/+8pfPPffc7bfffsEFF7z97W9/z3vec9NNN9EJoZxk2+9///v/4z/+w33x+tx7772shojEYtuB2sYS6F1lvpsc3BJukua5BI+Rq2bbQijdSNGCk0F5F/N62SPspby2firV8D6Y2eTyfNtr2IeVtrXhFrInuPAqjbL+OeHPBjWx1hrWEwY/RfohAAAswLYBSB9zZvLnOI+wectDnpCzjKVp8xgsKH1NMEMfPXp0+/btJ0+e5PsGtbW1ra2tbLu7u5ttpEZPT0+aNeQRt956K533V155ha5SeJRHW1vb2LFjKfWRRx6h3eHDh5999tl0SUMxn/jEJ5K9Gqmrq6OCQddLKeIOPYu1Bbyr1JxSFBvC0m+p+lFOTn+E84FNWyxO1MgSnF1Rh1+Z2R2BKOfXbOK372HJHdwIz2yv26tcHImHW0q+WZtl9CoxmmP5Exwuxz81AIBEwLYBSJugiYlPgaFTloI5IWcNs+mqKvZrOV5MlM4lnqJBDNx3332nnXZaTU0N31chOS4pKZkwYQJtjx8//otf/CJJ+aZNm1K4GmlpabnwwgvXJvkXqwlgA0sbNHy0qTrnu6BA00OWKDblquXxy8apt3QtahRZpHJeXV4RuXEPnlbmN2ZBbl9C9NXfM+tg0bYUF5Gsd89JoCLS4fBeKEiV+r0Rdfpotft5AQCJgG0DkC5sArNMO97MJs1m0pTrT2esqDG9eTWqE6Roh0c7+6yosxVSP8dWW2DTMlLVwbg12UqDGDl69GhDQwPfsVFfX9/T08N3cg5z0DgxTF4dRJJldPEo96ZiaWy60d5dIyxaHb8sA8Ov0XtPyd7MWmDLw/aRzeqyp/lEf/+oefw3rL0FP51hb4AdhXueRAa3pFIpq8vNYOmJipQXAJAI2DYA6RI4L3nzoJTEo3yTYDhTHqtGwon0qlBgE6SRJOW31W8r4kBptqateS3wqjkJ52iQAyypPzV8OQ+03duwoeYPJBpE3gDkg5MPKHd02QacEU2IFF6aD2hvbErjWyoqxYpB7FdktOHC0hOOea19O1pdftMB5XilrGOi83I/3Sr45UjZoHHKRYPRc96eE2Ok6fCKbWcEAKAD2wYgXQLnJW/2k5L0KHWf7/n5pdnPhWdw5zh5WxBaf4Ta/Ka9kolQ2084R0fjimlXiMCjQOaYvOPUd1/ngbZ7H5u5uQPQMroSRkmwQcyGY/AIl4tbIq35PIxaA4mUU7x/RKMO9jJeFiWVVeDHeudHnCe3FLNv/U4aVta9Uh80U/TEDmvcdkYAABZg2wCkS+DEY5kOeZQfw2dHFqGnehUYODl4otpuWP1RavMLSrA0t6EEc7CY3PluqvR5so8IPApkjpyzbXmIebhR6lCyjK7wAceqZcPVMsL5m0MpbonjJY1hz7OGvB1kLO2beFUKArIHdclB1EGJ7rZzLGKD4ZanXVaPEy93z+9FUG+16gAACcBMBkDasMnJnJgsU6I8p7nwiY1F6Kl83z6rWRPD6o9Sm1/QR04KOlROguTIJGvbVTvu7DPlhrIdxr3LjWMpXoRBjTyaE55auOSebVtGpxvh7PIhbOKMMzfRMqR5dfbETJD0UA95h/n4xxrS7aBj9qEcbjtSTr9mDzee9YovZSt988+ghF9rXOcVgMIEtg1A+rDpx5hHvflKSjCmXD4Jsgie6s9j3hQpz2yUyc1tZHYIrT/p2hx4Aq9SOVJ3Ry6hpKZM94luodpvf+btPDaMlYNcXdZtW5VpFvw84akFTS7aNgAAFC6wbQAyANNMSTw9sfVhDhpqw8JsGU51aoyHm9vqx8nU7yHXxuGV+kfhVchi+J67Yxy033aK1B2oE7Z9/t/P57FWDkwqC3TlhnHz3fj5k9wOJrVb4KRg202VTuZ7KvmuT5NfFYXHmng0JzwVAACKA9g2AJlAt1zfUz1YUrgNq9LreazuyDyeRydj2w4BtRlNS0cgNWEel0hkSWp3UiIztu0l+feH8MXsO8cdSJRa6KRg24+5mXXbVmWaBT9PeCoAABQNsG0AMoMnq77X5jmuPRvyrMs6P1xu4Rlw7aRsm8NXpm22LdmzbNjhqYVOErZ94NQ9wa48dZEbv4i8OuldAAAoHmDbAIDcIjO2ba5Vyz4dnlroTNjqiq8bZtl/gNIjxLa9JP/+EG8xeyqd1fBUAAAoJmDbAIDcAmvbcfPUBi6+FCL+ug1bmbbatm/PsmGHpwIAQDEB2wYA5BYZtW3JnnHftkdmbNtcq5Z9OjwVAACKCdg2ACC3CLHtmWscRTaeHGKzbS9Sf+rIlLHunebhqQUO1rYBACCbwLYBALnFwsaFwra1X27XbdtbolaCSOXL1UrwjTw8taDJrG379oz7tgEAwAZsGwCQW2TMtglVqfV7ssNTC5cQ2167zo03nhxisW0vUn/qyOun1sq7AakAAFA8wLYBALlFiG2DjJCEbXtL1EoQqd5ytRx8Iw9PBQCAogG2DQDILWDbcZMx2yZUpdbvyQ5PBQCA4gC2DQDILWDbcfNnptRuWFEUd6oDAEBvAtsGAOQWsO24Gb7ct+3te3kkAACAmIBtAwByC9h23MC2AQAgm8C2AQC5xUvVLwnbvnnezTwWZA7YNgAAZBPYNgAgtxi/Y7yw7YGLBvJYkDlg2wAAkE1g2wCA3AK2HTewbQAAyCaZt+0el5MSJwDIGfigdGFjleBjF+QGsO24gW0DAEA2yYxtM2UhfSGbOXDgQGtra1NTU0NDQ43L9u3btwKQA2zbto2Nyd27d9MQbW5u7ujoOH78uJBvPqBBrwLbjhvYNgAAZJN0bZtJ9rFjx/bt21dfX09iXV1dTZ5NHkPOTSpDdHd3UwYAep2jR4+yMdnW1kZDlGBXg3V1dXv27Dly5Ai0OxeAbccNbBsAALJJ6rZNRnLixIlDhw7t3LmTfIX+3bt3L8Qa5B2k4Pv379+9ezcNY5JvcnF2wwmcu7eAbcfN/87zbXtPF48EAAAQE6nYNvPsw4cP19fXV1ZW7tu3j3yFmwsA+Ux7e3ttbW1dXd3BgwdpkEO4e4Wxm8cK275z+Z08FmQO2DYAAGST5Gyb5OPkyZPd3d2NjY0VFRWtra1cUgAoIPbv319VVUUXk3RJiUXu7HP/2vuFbdM2jwWZA7YNAADZJAnbZkvahw4dqq6ubmpqwno2KGza2toqKyvb29uxyJ1lYNtxA9sGAIBsEtW2T548efz48X379pF/HDhwgFQbgILn8OHDtbW1zc3NJN/0FuBvBhAzsO24gW0DkAEOTCqbP6nq1MpBU+4cd4DHAWAlkm2TZ5BtkHNUV1eTf3ATAaAIOHLkSENDQ319PW3jrpLsANuOG9g2yEGqdtzZZ8oNfaaMnckjco6Za6h7N/RZs5Lve55N8WU7GnhcIUPH65yB4jjYDJPYtskwyDPINphwAFCEtLa20qVmd3c3hDsLwLbjBrYNkuDApDJyLGcRN05YK7pqN4ybT5HKyjFT3kGNfFehcaxjw35XuR2KIGsiqycJceQ9VJp2KiH5dpLCLxJ4T7RuO8WTO7HshETpNmuR9Uo/D04IaDfRaWFVYS0/aRLYNlPtxsbG3bt3M+0AoDgh4d65cyd7Jjd/e4B4gG3HDWw7U7DlWIuaMO3zgl0NBUlldslmu6wtKZULX6KCIlskM7NLnk3BWU6lUfVARCjbMUmzTLlUIq3U8ZbeLSFxJfxA1FMhd9tfLw8ngm0bZ8M7D95pZJ1hth1w6owg9ZwVidphwAmzbbIK9rdi1dXV3DgAKGIaXGgDwh0rd6+6W9j2yA0jeSzIHLdM9237GMZy6vAlQ119bAYTqEdJZeZks115idTBKp1mQSlbFNvWW+HonXSqSt62qVpL/RbblurRLyG8hW1rCLje8PHOhnGA3ksZsZ4k1rb5sbAWlVZ4kGw7vDa38/KLGPBigVACbbunp+f48eMdHR0VFRW4VxsA4siRI7W1tXT9iT+ajJWBiwYK2x6/YzyPBZlDqDYFkAqqe6my4q3p8m/qtV2NpDL3RrtM2qSFTHIvqV1P47SCiv5GsG2jFQYTYrmqQWsmDTJtm5DWa5naup30vJClqvUblatBOaKA88NfDu0A3cxKW17xoPVg6WUNF19RVcRsFNwTpfqxdK4829a/BJDC2HG6bdsueEAi7LbNHvZ38ODByspK+pe7BgBFD115VlVVdXZ20rUobuCOCdh23MC200XSIwqK+nhJvotw9bRJZ1KZiWy3y6QtoDMufNVW0VDX7Sgm/FgkJD+W4J1kxT2t94KserwPZlgzllmm5Iu+hprBqZP3Wa5fFDEOhGe2LJmzwI8o2nlwjkLVcYoxrFrtf4C+aydkUKN+9pxgvmT2YFvDdo/I6BsIw27bJ92fsKmrq2tpaeGWAQBw2bdvH3s4D57DHROw7biBbWcIrj4265XUylRbQVKZfbLVLovUFnQVzJ6wGLfmyLZtXSvlysiE0utwmeeacuaEts3Xtt0D0Za0VWX0pNO3WN9uzdPIq7Ior1/KDwFmHIj1FbHWrAmxd8HAkpwrDXEeWIbQl1U57UGwJpI9ouLGYtskEMeOHSOl2LFjx5EjR7hiAAA8qqqqWltbaQP3k8QBbDtuYNsZwnRNm2Latcklqcw+WWqXiVdITzzN9W1P8WazlQBsti2ttpLVsapUXQ7pmAerhLrHzpjcE8s55DVLGhrWFj9jIUcnLxgnPgkqnlXrTqx0W3RPzulG0iGLYyfknnhBrpkdixsD244J3bbZPSSHDh2qqanZs2cPcwsAgAz7e4aDBw/ifpI4gG3HDWw7Q9is15SwEOtNKrNPdtqVdc2GKdNujN+ryLbNDM8ivmqwKCYXPptNqsZpXDno59CrVjteqsHaf6/FUOP0rkZ4CH1NZTzVtjRteemlVtT87DWdP2mmk8E/Lk/HJbycvm2rQe+59kKDCOi2fdJ95F9LSwvJBBMLAIDJzp07d+/ejQcCxgFsO25g2xkixHolQQmRzqQy+2SlXRYTYJOekynSZhU1HpJdK3V6yCvXPJjtDtrBD8F1xMS2zUv51qidw5Uz11AflMMJRthwWH7/bPAbOdwgryjb8Y9F6q3A9tI7OPF6fvYqc9sWp9dWg3T+o9i2cTJBYhTbFgvblZWVe/fuJZMAAFjp7Oysrq4+cOAAlrczDmw7bmDbGcKqPp6Kca/ydlVZ1FMjZRbE3q4XY5V+L7Mh0KnbtqTFBtw+hdtJqkc9YT3Uiotd31zdIB8OPwpDWxPBL0u02jSkdr0D5+c/tEXpBAZVHqnb/BSxCxL3JXZjxs50On/nuB3uIUiDSvSNzirvQ9jrpZ1tEAnFttnCdltb2/bt27u7u7lWAABs0EVpU1MTbWB5O7NcMe0KYdsLGxfyWJAhuo75qj1oFo8EyeGtDStB6IsvZH4QesTNJrXM2WpXLIvyzD6eahvBstLJmwixUh/WPUMiubbKlbOcanOaVbMgbHsse2igVjk/IQkuA3zUa4lA1+TVukFrkWowDtBFey0sp10QxbZZHuVvQxnuIdDLwTJ4r4t1UIWcFtbbyOcNMBTbPnHiRFdXV21tLfvNPABACKTaVVVVBw8epDcOfwuBTADbjpU9Xb5t/+88HgmSI9x6CdWfTFlMMXO22mVmqRotIy7b9g5NsljvYLWa2YGokQls227G6uFrQdFZNWeg6SrZAnXcx9KBhKUi2Dar1rFh62lxXg5/AVs5ydb8PHgtsjzRXlMg4ds2exRJR0fHjh079uzZw4Uic/RxMbc1RBLbYLCkcEROtkGweIYZk7OIrtK/kydPFv8SLIPAGikISWVJBN/PebTearu9Bb1Z6NJ0//799MbBzSQZBLYdK7BtkIhQSY0Nb/HYbZdZoHxt4BFs26LDYjfBgXgtWoKqs95qMd8Nws1m63MArHsUostrYtuWz4/lANmatHt6KY+bWW3d8281sDy8w2GuDwLwbfvkyZMkEG1tbdu2bYvjNhLZkORtBovReOyxx9hGSB6GSGU5TUJSWZIGTzNSeSxn20OlPL5Pn9KHtvlxt02VNiJC+d3crDqxIWONlHHq8ZBj5G0BiyTY7tTbaFPurxHRe7jd9Puv7fYiFRUVjY2N9H7BzSQZBLYdK7BtkAB/cRQAkBl822a3kezcubOqqoqrREZhhiTDEyQoUl7N1WzbisggNqyEp8rIOdk2Q0viNq04trvjbiXvqLwYa0LAEwMIysPiBXIk27j22mtZpIJm11mXbad/AYfMkqzwHL1EQ0ODuJkEy9uZArYdK7BtAADIMty2SRSOHz/e2dm5Y8eOxsZGrhKZQ4gR22CwJBmK1O6dIHiaBEUyX5QzsG0Gi5EJijcROc0NZduRUc+1ZbZ5ti02CNdcGSKp9Lbb6F836iFnn+FWybcN3Lp8rJEMkWTdsNu2ekiybG/z+xdwRKysf0RSObYdlt+JcFM4Tn4VLV7b7UVaW1vpLdPe3o6bSTIIbDtWYNsAAJBlfNs+6v4kdXl5eUtLC1eJzMH0yIQnB2QIWtumGPJFLUnssg2CxTPMGCtyNrEtNuTtba4wR7JtsUG4kvnQVCeGRXn18EwUPWrUKPr37rvvplSnsT56t1mkCU92ETHWDXH2BE4Zr3fuMW3zO+1usmieQUr0opz/pEws0dsKz+/i9kLpp4wWqe32Inv37q2vr29ra6Nt3EySKWDbsQLbBgCALMNtW9y0vX379oz/iaRwI22D4WaxQEnhts13PKw5BVqqtstgkYS8K2/I29t8BVVxE2TFdP9XYGvZvDC3T56bUpltW3Eb4PAoFx4lIeLZhkCOcTM6+Lu8M6zz4uicHQYzZn/f47aprj1LQu1sev8nyi91wEXbJbQYbbcXYX8o2dzcjFu3M8gFL18gbLu8vZzHggwB2wYAgCzj2/bhw4ebmpq2bdvW3t7OVSLTCEkSGzIsksGMMybblrcFIjJkQ9lWdFFiG9Nmf8P9X/VyOcqpx7dtN5m3QrAzYJ4HtivDE1xoV5yf8FSGlEfqjdplfsAOysWCBy/o77hCzWKc2kLzs3rZNkOLEbtsg8GSehf2U1C7d+/u6uqCbWeK8/9+vrDtugN1PBZkiMaDsG0AAMgqvm2TLjQ0NJBtk0BwlcgosiHJ2wIRSf/K67ssVWCNJILiGSxVwGM9tEixyzYILd5lm+yQ/o67Jdu2nJHHSTGy31IKa4K4++676V/TttkGIba1SLYbYtsmch63O8791N6RKf3nvXXvhFGOSLVnZ8+pxIuQarDntyH3im0z5F2W2rts3bp1165d9K7BU7czBWw7Vrbv9W17+HIeCQAAID64bZMokC6QNJA6ZPzxf9yMJDfSdhkskiHWtnmaB0vlOyohSQRLJfi+B49V480Ywha5zVFHjmKWim0Tjlsy3GxuEi/gaSfPIhko7QWtbTOskQRFkm2zVILHqvA0Dx5LmP2wHqd2ROIwOG4JuY4E+RPASooNQo7sXegtU1dXh9+4ySCw7ViBbQOgMbb69YHr/3jFsntvWDVyZOXk5iPtPAGADOHbNukCSQOpA5cIAEAE6C1TW1t74MAB2HamgG3HCmwbAEH5wYbSJf8n/YyLE86Y8Z3xu+bzHABkAt+2SRdIGmDbACQFvWVqamqyZtsr9lfcvf3FK5bdS+HHm554qWEpTyggYNuxAtsGgNF8pP2c2bdoqi3CrNb1PB8AaaPYNkkDbBuApKC3THV1dRZsu/3YIfJsbT6gcNWKoQX2vSdsO1Zg2wAwBq7/o/ZxKofz5wzqPnmMZwUgPRTbJmmAbQOQFFmz7R9vekKbDES4Ytm9PFNBMHbz2PvX3s9C+1HcQJlhYNtB0AXtwj1b8iK81rTy/vKX8iLQBxf7Li4Hw9unfVP7LNUClrdBpigo2w75szmRRP/efvvtLFKGZbDCc+TMn+VZYX0j+H7yyMXZNsF2QQjZsW2aX7VpQAuP183mWXMP2RJyPGiikLNB3E2UQui38N73TOXhgzP11IwH86ZYBIR8CfRe459iAKRHVmx7m/RIC/GYDhbJdmwPtJAi1PIu8uMseJQBT3bhUQY8WXJNsaFtE9oug0Wa8OQAeCYDnhwBXkCCJ9jgOaLlEfAEEEp2bPvOLc9q0wACAgICQqyBPnj5RzAA6ZE922Ze7W66quxu8WjVtp2U0lLz51XCnxrn+qFdEClerGfL2zJuaTs8R2gTMtZsWqS2S5gxGUGuVt4m5F15m9B2QQjZse2LFv6vNg0gICAgIMQaCvLP0EGvkG3b9pXZjSSpduIVjWY7zg+o6GYdwbYZPMqFxZBhsw0ZnsNFxIgNbZvQdoMQ2diGiZxHIMfI2+kQXo+cKm8T2i4IITu2ff6cQdo0gICAkNlwxozvaLfB5Gy4YdVI+c6iXA6P183W7tfKnRC+ivH2ad+s62rlH8EApEf2bdvbYf8/9JCj27JGKzbuFWIE27Zsh2ybIWKYba9evVpsEyyVIWLEhrZNaLtWrHlYJMH3bdm0GLarwdMCUhlaBrZrRWQQGwIzBgSRHdsO/9v5HA+aKORy0EQhZ8PIysmaN0QPj27b8qWpPPx6hZ6a8bBifwUfxNlFPNaGAo8CQIUGp/ZhJQd6l/F8AKSNxba7M87WBx1xnqLueP9Pua30wQcdjX7QbXmK2FRKufhpCkwNxQaDJTFo17q2zZNdeJQNnkNqKAQzD4th8CgbCTMEoRVku5MnT2YbPNYgJDUkCZhkx7ZfaliqzQRaIAPjWVMFdlIkLKn3n0ny1AYeWXhgPIMokFJrn6UsDFz/R54DgEyQfdv2lFlEkm6X0ibTaCdVQdbtANtmsOzyhoB2mW2vWrWKbfMECaeMUVzeJsJ3iZAYsWElPDWcoLJB8URIEhGeCjSyY9vEVSuGavOBCBl5LizspEiAbQMgU36w4YZVI9nP3Lx92jevWHYvHvwHMk7WbVsYsx/JDFsYuO/TboKk29Fs24TimWGzPBmxbXmbER4jb2uEJCUkpGxQUlA8wZIIvg8ikDXbbj7Sbn2Y2gXzf7aho5ZnSgPYSZEA2wYAgCyTPdsWcH2WFNy1atJoTbb9BGk30LYJt3oFES/uJNGyiQzmNtsgWDyDR7nwqICcMjzZyMBjgwuGwEsmapTvSPkJHiXBE1LqSZGTNdtmjKycfMWye5lnX7Twf+/e/mKmfu0MdlIkwLYBACDLZMW2AShcsmzb8QE7KRJg2wAAkGVg2wCkBWwb5BezanzbnrCVRxYeGM8AgNwBtg1AWsC2QX4xeYdv27RdqGA8AwByB9g2AGkB2wb5BWwbAACyDGwbgLSAbYP8ArYNAABZptBsW36qBnvIhoDHusi7LJXg+wAkA2wb5BewbQAAyDJZsW3nyX7SY7MJHqM+GpBRetttlkj+eECZoGcBUhLf8ogSA0BqwLZBfgHbBgCALGOx7cMZZ8uY0j63TuE7LlqMmYFIkGfKrX1Kx2zhO1YcJVcR8WLDhCUBEBHYNsgvYNsAAJBl8te2rWUUmDoLgTY3AEgf2DbIL2DbAACQZfLWtp1dfW2bNJqh7QpEJMtAsF0BjwUgMrBtkF+8XO7b9uuVPLLwwHgGIIwDp+5ZdKrp1KnHXj819QCPA/GRNds2ScG2FYwCHEqSN7RdeQOA9IFtg/ziqQ2+bS+p55GFB8ZzkdBUyQfzWh6RtzS5B+IacBysXefWv47vEsyzKf6enLnqpi5RJ3OnPxkka7aturHFpKPYdpBgK8hWrSHi2QbB4gU8FoDIwLZBfgHbBtngwKl74nRHDmvFUO2pi5zIx5hfmkHtFcvMahDuLger/JnyasLyRHXHZGw7uZoJ70Q9JtXuVEL9d5PCr1WYBMtlCad4kq8vO9Xh3WZtFd5ye4HbtrkrbwCQPrBtkF/AtjMC0zLTGzRd06SB2YYImr5YCWrIwVMoFuQ8ujWGSiH3PC8k6FW0zKwDcmrEYxfZoviWXToDFFxHPRAWeK9YDeEnLUIrWvf8M6BKKvNLewjoQ7K2rY8HKSSuxDtS5RWRz174iZKIYtu85sh15gvFYtv0L9sQMQwWL+CxAEQGtg3yC9h2RrB+5c0cSAtCK63Gk9B1gr5bN9sSeazdCFyGtElnYK8iZ2bdFiYa8djlbFFsW2uFEWKWfpBkjikgr8Q8QO+8hTmxFJx6jKsgS5ekDoTVHN22pZ7rVzJqf7QQdNkjEJ03ryvkniesh4hk2wEva75TaLbNjDncm+XUoG0AIgLbBvkFbDstDJHy8ZJEJF/L9HSNrEXOz00lSIJDGiKEWtlsjNUsighbsvqr1kltVyNqZtY9qW+Rjl013cS2bbTCYJVPDXduKmVzUF7Kq9Opyusk73OiYNq2CPwMsG4bJ429TPoLHYD9gkoEtXL7y+R1UjvPTmb1lPLixnnmSAebsPOsqoTZ2NFF0fc8Iiu2nS00dTYRSWyDYPECHgtAZGDbIL+AbadFiAR7suivyXkxVnHkEmxYFyekoUQCpNm2pWMCrxXfbEL6HDkz616ILluPnatt6EmTseupVzyxq7mHQ9lYb9e6BS2OHvQCubBTHdSW78RyJayHxmsnlqv5ydGCWwN/3W3B6YPt2EUR/Xx6meVRIUs8P7FetvCXw+mzekQUo780Wv+D9J1wGzWL5zUFZdsAZB/YNsgvYNsZgXmDIgSm65h6KmGpwYY1m5A8WV+ENim6toj3wW5LXg/91JA+R8zMIkMl1TwoFuPUHE3vCOsKqFiBpni7tlJgfXP7Kc6hYtueCPILAL5nQTQRciWjayU7QMM1Wc/lM6AEN79swxSso0KuWQwP89XkVRndIORBxYMtWxjWgWGt2XrqAk5RXgPbBiAtYNsgv4BtZwTmDXbdMYIpjmGWpmJpSGicEezC7Qa7vJpqG+BJDtEys6YtxT3MY1e82WwlANO2ZRkN6QDHdhqjrG3bX2VDDUU2bZCww9ciRWcSjgeGOSr4sUu9FWfDciq85kJOsnyYCV8LDW7VxqmTuy2/WHrOIrHtLgBAZGDbIL8Yvtyf5Lbv5ZGFR9zj2WrbBPcMN7DlUgq6rEQWSsLSkOm4XoUshnmSSBXaZGnOtC6zckG0zKy5QGs0j92N8Q8w8smxaCv1Z9GpqZ6Fm5ccPEhuJ/LwQ2Cte57nHIstsz1IdigPA22QMMvUInnNkf1SGxXCXLXTTv23nkY+JEKb0w7WMh4CEMduNm0OZrmVwCFREMC2AUgL2DbIL2DbGcEiwQbmciMh9CLlVUyC2ZLpuE42z1bl+v1UDVOXQ2Q3SmbVVjWsx65ZnRLC7TOgLXbaI9oh9043OL1S63RSpZePZ7a2KGXjr/s6vqGddmv32KvMIrXarGijgtWZ1IgKz++/KOukU5SoV4TIbD3/Qe8aipfzW09RvpMV297sPE7kNb7jISKtqXYoa+mYzfJGFonaz8R903PoNb92K/ubTXs14akuSVXoZOaIMlIcoR21XjvHLxPaNGUL6XkeAtsG+QVsOyMEeYNA+Iqch4uOTSKZYZhCY22I1yMye9brCIq37ReRU42GtKr4rqdiSWUmWIx1PZVnNo49ddv23E6zRuFqvPO2wHrImr7H7ZjzUzjUnHeu/CBOMrvYELuhPOZmYx2wvnbOa0EVsgP0LmOcA/G2redQwCoJGX52pKMLqd/Xa+/8izMZ0qL8OgZVHrHb1pc138kr2xai1ivGFr2f4Wid5zoqavabsTUYnuqSXIWU2+uNk8y3KdZaN+HkMgRcrkeqxt40bcsnIN+BbYP8AradFp4MKcEzMIs4Sr7IddMIVgkOb8ie6rVlb8grqzdk+qXkQ0ll5r0SmSXCj13BayJcNxlWnWWRwra1JlhPnMrdhiiVxax1O0+Gx0pRBrbhO58459JrKqDMpkSyGrR45VS450rOxoeQrQkZViRhNoE2MoNEllfrBq3bVIN5gA7akLC9+gJ27PZ6BKzCyIeWL2TPtm/li5xMurgSSlC043hjXJnz10JlTRMO6MugqMffZyVV0eN4Fbm+N4YXdfJ71XitOg2E9cRoV8Kt3Cliq4TFKrWUjnlNq1nqpl5/eGryFUqJhLcnDsHASbn1VlGLqFApISoNalptNc+BbYP8AradFqESrDmN5ovhxslFR8hKaEMMfw0ywDitqXpDhCpMsp4mlZkdvma3jPBjV/Dqj2Lb4izJ+sj6TDVrJ0EOVDl1iZ0W1jdWgzhekm/xaorKtddXD4Ygstp0uZReWecYtUOwvu5uUE6I5rhqUFpUc+qdEajZgnTcx9aBhKWi2DYb1ZFe/bwia7bt+SaJFtuSRc2XMy+fs6kLmXA0eUOrzEs0s8iZ3A5Jm9K2KGX0RG3DaFdAcX5J43BoSy+g1CJKO4h2PMJTBdErVBCptOEjdZfVJdcu8Gt2ktlmcNO0Y9SQr8C2QX4B2wYx0Ss3AJhOrNm2JvRM+GSZE7bN8mue56QGX+SIYDVIu21rkPcb6+LWJrSOhai/Vpt8ORGCeaThiE5GN2PWk5ATwupMcMbyk6zZtiR/bNvccCVPyufLmYuIERuywPn+5tQn5F5B5JErl7dFhbaeOPWKfspFvIwcUWFAJaKowK9ZrVvdcQhPFUSv0Mcpw9OkTbnH3pZcuwxV7iKKBjftV5r/wLZBfgHbBrHAFjsL7gYAADJCrtm2YmeK0glBExtC7zheWadCxeWkfKxKvwp1W3TA1hOnWtFPGaUtqUJbJUqch1+z2h0zd3iqIHqFHIoPqstJ44fPc8i1ezhxXgVOZW56cNNKSp4D2wb5BWwbAACyTM7atuFjXPqkDWlLxom9Vc7jbfoNyZXL25SZbYsNwsvgF7e36yEqDKhExAn8mgmpciWeEZ7qkUSFLDKoIgdW3s2loByHfKz+TmDTtGeehjwFtg3yi7sW+LbdeJBHFh4YzwCA3CHXbNvzPsXeHIS4SQYn5RJb3OP4f1LlbFvJ5MWKbVELbRg9kaqytOsjKrRV4myJ7ntINbMdo0FBeKpH9AqdKKMa5aAoh6WMXsRvhB03S/djtTK2s5CvZNm2q/afmrzDWZ6kMGHrqU2tPD59YCdFwv/O8217TxePLDwwngEAuUPv2ba75WqZ2HAsz3nghYOnbjw//Se0zTdBZnZSfp6bp7hxrHY3i3iYhlyJvO2VCesJQ2tXThUV2ipxY0UtHKVmwqtcFLI2bU91iVyh878KKybF+z33kGqXG/IaUYsYTTtQpNy9/CZrtn3s5KmXy31PEuGpDae6jvE86QA7KRJg2wBoLKl31i9ume68Ke5a4HyodhzhSQBkhKzYdlRIwky36xXS6YkoG1AJGWqOHGUvUWAnIGu2bVVtFmieSB/YSZEA2wZAcOzkqTEr/XeECINmnVrbzPMAkD6wbSsp9oQvCfOigZUUtW8X3MFnx7ar9uuTgRaW1POcKQM7KRJg2wAIJmz13w5auGU6VrhBxsgp2wYg/8iObYdMCSz89A1+M3fKQbYTLQkhvvByuXMjfjbDj2b5w+bFLXpqwYRP/m2wCFpSHGFts/OAF4T8Cisa/PeCNYxdzT+BAUgT2DYAaZEd2/79Yn0ayHiQbVtLQiik8D0jBgEBwRoGzeKfwACkCWwbgLTIjm3L3/7HFGDbRRJg2wgI0cPODv4hDEA65LBtOzdBS4++UDETAh9yIdXjIsoE3z6sF3kt4MEaZqRK+vX4B5iwHtA7ZMe2n9qgzwEZD7BtBAQEBC0U8N82gGySq7bNfdKm0JTELdPfcq3U5p5GPRTBd6TSCnoRX5klebZGqmSgHr+LTqq0GVwEZJvs2PaSen0O0ALpuHZLYrJBtm0tKSNB7q2WVMzh9Ur9DmCEjIRs3rfNB/Y0J2j35SPkcpB/6ckafvoG/wQGIE1y0bZdTS0d85rVJSVHpk0pXd1zsNVj5lJIUMTXW2ukT1r1yBv+9YDImaBpkGWyY9sEzQ3aTCDC/85znmOVJrJt86iMIncYgLiJezzLYGznKR1HnDuz5ZdPCy+X85wApEl+3EkiCNZLclDrSrVaxvXXMWzROSg/YRSRlNfdsUaapFuPH+PUxDYjNg2yRdZsu/HgqcFL9cmAwk/fcJ4PmD5x24ncZwDiJu7xLIOxnb/Mq1NePjlkZBUDAEav2jaJo12dXRzB1JKD5NJ3UQtyPc62t0PbQWXkIkqb3o410iQD9VCkemmQuAjIKlmzbcbrlb5z37Xg1PjNmfkhSSJuOxFzGAUA4ibu8SyDsZ3X0Icq+xVJOdDHbONBngGA9LHY9qFs8irJ5K2v8h2VzaP7aUmUud/ozXxH4FRhiRbI9dC2n9VenUPCItmpxynuxVAiqypi0yBbZNm24yNuO5FnMgDiJu7xLIOxne+QWE/e4fyo5PDlzhJG+j8WBoBGVmzbMcVgSB4Vp/aQVdXFopZOHjWTiVLPq7dGUVWtiNj2462RBmnWo3RQ7ERrGmQL2HZEYCQgm8Q9nmUwtgEA4WTFtoMgWQxxRV0laV+VYydDBNlU6/Fd1ajPRyni7LCMUrQ10iDNevxEt988ObQIyDqw7YjASEA2iXs8y2BsAwDC6VXbDkd3SWWll3DSVZzcpoFa6vGzO0QvorRvRMZRj+isUsZaD+gdYNsRgZGAbBL3eJbB2AYAhJPDtg1APgDbjgiMBGSTuMezDMY2ACAc2DYAaQHbjgiMBGSTuMezDMY2ACAc2DYAaQHbjgiMBGSTuMezDMY2ACAc2DYAaQHbjgiMBGSTuMezDMY2ACAc2DYAaQHbjkgMRtIwbv4Nfabc0Gf+pCoew5m5RsR7eZRw57gDPOepUysH6aljZ7oJvBI1DGp000Kp2nEn5Szb0cD3BY1jk60KpEzc41kmhrENACgoYNsApAVsOyKxGAn3V9meCS7Qrs5abdsJnuwmZ9tOMORehVeo27aq2ixYjDwNpi5yT++iU008grN2nR/P86hhqnT2HjNS17rxvBI1PKa1pKK1pWduCk1Nm7jHs4x8IAAAYALbBiAtYNsRicdILGrLlpY9afZse81KN/HUqQOTypjsihjCi5TXm6UFco7v33JZgajZDapJa8vwgavyaeH5q2zPBBNoprNW26YgZDcp23aCIfeMpkoj5+un7qnkqZpqs+CnZoK4x7OMfBQAAGBise2DAIDIwLYjEpORGE6s6bVh25aYqLZNeMKtraa7hNi2Wb99VT5dmCvL2iqsl0kzt+117g5x4NQ97EURMYQXKa83ywvkDN+/5bIe1K7cDS7xXnFtGV7bzQhxj2cZfh7cAAAAJrBtANICth2RuIyEi6ynrdqu6dY2sbZGWm3bXlyBt2izbcmtE9eTCqYTa3qt27YtJqJtE0K4tdV0Ey79rLhZf8CqfDrEPZ5lWOdZAAAAE9g2AGkB245IbEai+DS/jcRc6taCvLBNJG/bwbdc22zbXMmOx7aFyHJt1XZNt7aJdXTbthe3wdrlq91Gr6LXE524x7OMc2a8AAAAJrBtANICth2R+IxEulHbNF2bbWuqTSRv27m5tk3IPq2sKLvwVC3IC9tE8rYdfsu1djeLZSUbtg0AKGhg2wCkBWw7InEaifcQkjXmzdCebTPD9h4Moq9MR7btsPu2OSG2LdUfz33bhKy2yoqyi8W2NdUmkrftMEsOdmvYNgCgSIBtA5AW5eXlVVVVnZ2dx48fZ++mPCVuO4nVSDwJdoOydK3atr8Qri4qR7NtvxVzddzHZtuiG7w2b9d72mBm4Q8hsd1ULa98Cw/WV6Yj23bC+7b1VW2GWT/u2wYAFDSwbQDSoqWlZceOHe3t7ceOHevp6WFvqHwkbjuJ10ikp1mr92botk2o69OZe962p+z2zFIPRdCX2DOEkGAnqEvXim1LNqwsKkezbb8Vc3XcRWtLhid5tYkVd0XK0yPu8SzDOs8CAACYwLYBSJfKysqmpqYjR46cPHmSvaHykbjtJGYjEdKsrRZbbFtaWiY1T8q2Q2/8CLdtQhVu9aogo3hLxRS0ezNMA9bWpzP1vG0h0Frg/ZF6KEL4zd/JEvd4lpGPAgAATGDbAKTLvn37qqqq6B10/Pjx/F3ejttOYCTZREiztlpsXW8WZkwqnJRth9z4kcC2CVW4tauC9Il7PMvIBwIAACawbQAywK5du3bv3t3d3Z2/y9tx2wmMBGSTuMezDMY2ACAci23TBgAgKdrb2ysqKjo6OvL37u247QRGArJJ3ONZBmMbABAObBuAzNDQ0FBXV3f48GF6N7G3VX4Rt53ASEA2iXs8y2BsAwDCgW0DkBk6OzsrKyv37t179OjRfFzejttOYCQgm8Q9nmUwtgEA4cC2AcgYLS0tJNyHDh2iN1TeCXfcdgIjAdkk7vEsg7ENAAgn/2y7T58+fMvdluGxLvIuSyX4PgCxUVNTk6dPA4zbTmAkIJvEPZ5lMLYBAOFkx7Yn3cJ1l7hlEo8kbPEbRvVT8lig3HzLI0oMAFlg7969efo0wLjtJNNGov06o4/0G5BBz9L2n7fth6DfrNHRy8qPzRY/VKkG8wcjRSWZ/+V2wIh7PMtkemwDAAqNLNi2o9RCnx2X7jdqg7MZEB/BtgWOpauIeLFhwpIAiIn6+vpdu3bl3dMA47aTzBsJ/7EYTVi5YbsSnIxtO8HUYh2rT4ufhIxo21K2jNk2f7618Vsz8m9ABj1L2/Js7IDfrDHRysqPzRY/VKkF8wcjRSX45XYAQEESv23r9kyS7Wp11PgwmDoLgTY3AMg+7e3tlZWVefdb7nHbSQxGwmVa/v1zT2QlwfV+4lFahPZsW/zApPcrjwl/Sp3ql/J4Nu+ti/PWw5fJlV+UzNzatvdjMZqwMsNmEpyEbbvB1GINq0+Ln4SMaNtyNtg2AKAgid+2XX321rNlAuJDbZs0mqHtCkQky0CwXQGPBSBOGhsba2pqurq66J3F3mK5T9x2EoeRSDeNMAyNJqLYtrVgBDS9jmDbrqBTBvvCfFowmZZ//1yIrC+4B07d48bIi9DctsUPTHrinvCn1Kl+OQ+3eW9dnLcevkyu/qIkbBsAUJBkwbZd/Du0Vb824yOsbVNueUPblTcA6BXY0wDb2tqOHj2aL/eTxG0nsRgJN2nPWbVdRoy2zUuF3EmiLpaz/G73YrBt+aYRhq7RRBTbthaMgKbXUWzbEXTKELAwnw5xj2cZ1nkWAADAJFu2LXBk2rLQ7ccnadsaIp5tECxewGMBiJm8expg3HYSj5EolmxfWo5g28KSpTyJ8Ur5d62Ytu0ErxW2Es+biMG2hUlzZ9V2GXHaNisVcieJtljO8jvdg20DAAoai213ZpZJA/sMnMS3XXhEUPyGkf20BAOSZnlD25U3AOhF6urqGhoa8uVpgHHbSUxGIimvvtLMCbFtLYTdAWIQQZf5jS7SYrbftzhsW7Vk+9JyBNsWliznSYgoJe5aMW3bCV4rbCWeNwHbBgAUNPHbtmPRsj7Tbr+RG9iGLT5V26Z/2YaIYbB4AY8FIH727t1bU1NDG3nxNMC47SQ2I/EeQrImwF+j2bbu6KGYq9p2pDtb7MveLCR3+0oYsvJqK82cENvWQugdIDoRdJnf6CItZvt9g20DAAqaLNg24Yi1B1Nthi3esW0V1b0pQvwbhJwatA1AFti1a9fOnTvz4mmAcdtJfEbiLSEHmGuk+7YDifSHmBzyfsX1vY45Up4d2yb4Q0hktZWJZtu6o4dirmrbke5ssS97s5Dk7StBxD2eZeT+AwCASXZsO2No6mwiktgGweIFPBaArMCeBrhv377cfxpg3HYSo5HwuzKcoN547T2hzw9sNTpl2w64BYW3azbnBPuqeTx3khBiCdkJprlGu287iEh/iOlB3i+7vugYSTlsGwBQVOSZbQOQdzQ0NIinAeaycMdtJ3EaidBc7daOLNu24v1uCJbp2Gxb3JVBQbvxmj+hTwpsNTpl27bfguK1azZHwb5qjjtJAAAFDWwbgNiprKxsbW3N8acBxm0nMJKsITRXu7Ujy7Ytez8LgTIN2wYAFDSwbQBip62traKiIsefBhi3ncBIQDaJezzLYGwDAMKBbQOQDerq6nbv3p3LTwOM205gJCCbxD2eZTC2AQDhxG/b1if6icgIz/sLhcqzh5mIjSwStfOJ+6bn0Gv2Ht5iryY81SWpCp3MHFFGiiO0o9Zrl7AmqZH+k2m8OEpPcMLyj/3791dWVtJGzj4NMG47gZGAbBL3eJbB2AYAhJPnti20rFf8LM3OC7TOc/sUNfvN2BoMT3VJrkLK7fXGSebbFGutm3ByGQLOsCYpkVIPpE1nO/uvZ9zk+NMA47YTGAnIJnGPZxmMbQBAOFmy7YHe8qVrU/5ipgdFOzo30vUwZcXVzyuJmNgWDujLoCjg77Pq/HLOFseryLW7kbyok9+rxuuK04DePbknRrsSbuVOEVslLFappd/ISVrNUjf1+sNTk69QSiS8PXEIBk7KwIGsFq02OUlgjWQoxdV+FAQdHR0VFRU5+zTAuO0ERgKySdzjWQZjGwAQTnZs21NLMii2JbzKFyxK8/I5myKSK5diYh4iWd7QWvASzSxyJmdL3pS2RSmje2obRrsCivNLhhyjj1yLKO0g2vEITxVEr1BBpNKGj9RdVpdcu8CaFJJf6SNBTZp58p2mpiZ6l+Xm0wDjthMYCcgmcY9nGYxtAEA42bFtz5rEtrnh+pyUT0ge27Aislnz+7bmNCKMX0HkETVo26JC2jC659QrOi8X8TJyRIUBlYiiAr9mtW51xyE8VRC9Qh+nDE+TNuUee1ty7RxrUmB+J0J/ibzMhUZlZWVLS0sOPg0wbjuBkYBsEvd4lsHYBgCEk1O27csV7fAyTgaGoV6UxOLEhlNOxiviVKIUl/Kxdvwq1G3RK1v3nGpF52WUtqQKbZUocR5+zWp3zNzhqYLoFXIoPqguJ40fPs8h1+5iTQrJz1E642cvLNjTAA8ePJhrfy4Zt53ASEA2iXs8y2BsAwDCyU3btomWqYVc+qQNaUvGiR0o5/E2/dblFuVtysy2xQbhZfCL29v1EBUGVCLiBH7NhFS5Es8IT/VIokIWGVSRAyvv5lKQj41HeVBSSH6B1DOnEjNDYVBXV9fQ0JBrfy4Zt53ASEA2iXs8y2BsAwDCySnb9hSPNplniQ1t20WYmdhg2zyX2OLWxv+TWmTbSiYvVmyLWmjD6J5UlaVdH1GhrRJnS3TfQ6qZ7RgNCsJTPaJX6EQZ1SgHRTksZQJatiZJkUrN+k5AnXnP/v37KyoqOjo6curPJeO2ExgJyCZxj2cZjG0AQDi9ZNvulit1YsMxLedZFQ6KcnloldB/whj9/FIJkeqV9FyONelmEQ/HkCuRt70y1u5JdRvtyqmiQlslbqyohaPUTHiVi0LWpu2pLpErdP5XYcWkeL/nHnJhtV1blBYZULPlrBQSu3fvrq2tPXz4ML312Huw14nbTmAkIJvEPZ5lMLYBAOHEb9tRIbsyNS53SKd7omxAJeSbuXzovUHBn5IcfBpg3HYCIwHZJO7xLIOxDQAIB7YdkRS7xxduedHASuDbCsVxOpqbm6uqqg4dOkTvvlwQ7rjtBEYCsknc41kGYxsAEE7u2DYARQe948i5c+RpgHHbSe4ZSdW4sj6DZvKdCCSbH/QmcY9nmdwb2wCA3AK2DUCvsXfv3qqqqhx5GmDcdpJlI3HU2MOuyDMHySnJ5mdQHPw7N4l7PMtkeWyHgmtIAHIR2DYAvckul2hPA4x3Ho3bTrJqJLIZux5tngfKUjauyt9JKj/DKZXEGQbZJO7xLJO1se2OTY594MkjOfn8DIrDqAYgs1hsuyMXWO88tWKi2FQxE3iMiVSPiyjTb+R6HqWjF5koHt8hlbBGetg7lnw9HL1DLmqkV03ImQC5yb59+9jTALc/PIC/hnHMo862jzV/3HaSNSNh50Y2Y32fUKKSzc92OfaTD3qbuMezTJbGtvyOdkegOfYoiz9Mk83PcD8rMKoByCw5advcHW3iSElcTP0t1zxtumrUQxF8RyqtoBfxpVbSW2ukwNqxFOrhOEnGuVAirTWC/KGhoaHm2f/p0+fWaexpgDHMozMH6aZo5o/bTqIYids1CVkEXAnwCJcB+ey4GBFOQ/az6ZIgv8DIB5LGObXJnMOo+eMezzJRxnba6GPQMiaVqGTzs10ORjUAmSXnbNvV3X4jJ1q1URJZ2pTS1T0HWz1mLoUERXyTtUZ6qI14e5Hr0SqkXfZQcD8qIJKhFQf5QHv7+t9/us9nh60Wfy6ZaF7U0xPl17FKYtx2ktBInF5J3ZKPQDsaZzfEB8xj12OcfXtLjPD8PrDtBDgnzsN+otRTmFx+d8QItPxxj2eZ8LEtH5SDPLKUQ7AfsYcx2IwIddgmm19g5AMApE3O2TbHZo3BJknaal2pVss4kjpyJFu8DspPGEW8jF4r1kg7oUUS18Ny0L/ycVsjOfZYEBvOCZeRX0N6SX3CX5WJ3+3T51vPVPpPA4xrHuVYp9O47STcSMwe+xGWgwkVAjO/FqOVTja/T2g3gHx6nFNqOVeUxT/RSeYP/8Ym7vEsEzK2nWOS+iWPLG2UBRyxh5ab0GOcfXtLjPD8PvLLAADIDIpt19TUkG3v27ePO0CskKeEGIhFG4O81slqTXCQ63HNiO/QdlAZuYjSprdjjbQgdSylerw+yh2yRzo4EYReCYgPes1oQD2+dStdptK7xnkFvNMvbxPui6O8XApu7j8sqGlsbDxy5IizvB3XPMqwz6Zx20mIkTgYnfKPyRUWEze3lubGJTo/VEZJTja/j9Fp4KOfVvM0q1HJ5tfRXoy4x7NM4Ng2OuxHWI4ldDiZ+bUYrXSy+X0wqgHIPLptb9mypbW1lUtA3Di2EqAgjn+oSRYdJZwqwgRTroe2/az26hwSFolUj9qxFOrxU2nL65A1UiGoPyDTOK9Av+Fr95WXl0+aNKmysnLlA5/h595NUl8FZzzYXi8XN/+wVXuqqqrobeg8DbBqbDzzqIOTqJZmxG0ngUbCMPrsH1PSs79RQImgHe34k80vMAoWBM6Zl5GP3jliQfihh59VB3XYJptfR8se93iWCRzbIYfgJFlwc2tpbpx58MbpU5KTze9jdBoAkDa+bR88eLC2tnbz5s3Nzc1cAjKCoxnBkDxaFcSQSYtFOnmCDYah1DNxoF9FsJVqRcS2H2+NlLB0LOl63DoUqLvWSF7AQ6oUxAmd6D4D/7HHUeSJEye++uqrr//2k33+a7DzejhJFtzXRUtz45zX1Xkl/acBViq2nbl51M0YMJPGbSeBRsIwDsqPCOm0Hb0ued9oh0g2v6AAvcQ5JOmYQk6Fsxty9OaJ02OcfXtLjPD8OvprEfd4lgkc28YA8Y8p6bFjFFAiaEc9e0nnFxgFAQBp49v2oUOHdu7cuXHjxoaGBkcm4oYMI8QKdfukfVUsXfFMrJVqPb6JGvX5KEWcHZZRirZGejhRelwq9fhYE6VIOir/WJQdECOONg/8e0tLXV3dGy5P/vCCPp/45aK6uv2v/CDK2JRw65roPA2wsrJy//79x17/YRzzqDPTB06xvW3brHfiINw90Vnn+NSeK/fsmsgnRKnY2VFOHSPZ/BzlvBcCzuEqJ9aPMJISHL6ZX4vRSiebX8VJVEvHPZ5lAse2cVB+hLOV1ODR65L3jXaIZPMLCm5UA5ADKLZdX1+/fv16+pc7QC+iG6YukU66ipPb9FJLPX52h+hFlPaNSK+U87+KV1dy9UhYorRIqVGldhAjzknvN+TNJro6XbVq1bp16/7xi0/0+c8fPT9nTvX8ez+bnG67dbmvnPM0wJqazWNK+wx4JLPzqBMfOofGbSeBRuLjTPOcsnEztQOREh0S6YB7vBw/b7BIJJdfzs1I1J/8wDhefzhp59/DzW17bfySHmoMlVGSk80v4WQ0XoC4x7NM8NhWu+buicNwz5pyTLiGBKBQ4R9DJ0+e7Orqamxs3LBhQ1VVFVMAAEAw7jXOd15Ys2ZNeXl53aL7Pk1T5yd//cK8eTNmzPjLN2jnM+p1VeiFkHPZ5fh5e3s7yfpn+vT54VT2NMDMzKNO9tB5nIjbToKNxE64EaQGnYdEp0Eh2fx5jyFazqvAToGRlAijgBJhntpk83Pc4W9Jins8y4SObecwOLiGBKBY8W27u7u7paVl48aNW7dupSkfAJCIV27mk1KfPp8d/o9hn+1z8X3TNm1avHjx9OnTVz96I09iDHyFFwpg/YjP8px9+nzr6Qr+NMAZGZlHtSmdoQtK3HYSaiQOdERS14MNImWcU2Y3NjvJ5i8AjEP2I5ytpF4RvS5532iHSDa/gxMf0Km4x7NMwrEtcDqc4WHtvFVs5yaQZPMDANLHt+2jR4/u2bOHVHvTpk2k3VwBAAAB7N27t6Kigr1furq6towp7TNwYmNj4/bt2998882ZM2cuWLCAPRyQF4hMbW1tQ0PDkSNHZtyevXk0bjtJaCSuOflk2klAFFR9ZS+JN6TcizZlfPXunQ9O9uD24x7PMiFjm7ou9Vw+wgzhnJtk3vTJ5gcAZAL+MdTT03Ps2DGa5isrK1evXl1fX89mfQBAEMsG/9d3X2wsLy8nnz56dOrt7u0fBw8ebG1tpffRqlWr5syZQ85N28levtJ1b1VVVeeGkQP6DBhb1cPepIlJbx6N205CjATkEq5UM3L6zgetKwy/r3GPZ5mQsS0fEZHohAEAChPfttlDAHfu3EmWsG3bNj7tAwACmH/vxXwKdRk0o+fkyZPHjx/v6urau3dvbW3t+vXrFy5cOG3aNPbHx7xYNHbt2kVvRudpgO5vuWeBuO0kxEhAzuLIYqYNkTQ5qYvCZPMz4h7PMhjbAIBw/I8hmtQPHz7c3Ny8YcOGzZs3t7W18WkfAGCwb9++ioqKdevWNTQ0kF7TxSp7H7ELV7JkyrN79+6tW7cuXbp0+vTpS5YsIf9O6q4Sqp/yHzt2zPkt9/iJ205gJHkB6bVk18Gr0Cnj+Hsy8pxsfo+4x7MMxjYAIBz/Y4hm9KNHj9LsXl5evmzZMjIDPucDAAx27drF/s6Brkv5z6170FuJ/SHEgQMH6PJ1x44dK1asmD179pw5cyorK6Nfx7KnATKVz4Jwx20n0Y3k0edPlTzkhzsqeTxRtVJJEmE2Tz91hxp/+UoeDyJSMHc+xD2eZaKPbQBAcaLYNk3q5Ac7d+4kOdi0aROWtwGwwha233zzTbLhzs5O57fWDRsm4T527NihQ4fofVRdXb127dr58+fPmDGD/YAUrygRZOetra1Hj9aNnX9Dnyl+GNTIWyGqdtwpJ3lhrKdJKwepSWU7GniKStx2EtFIrD4tpDnctjVN52G6mwaKjLjHs0zEsQ0AKFqUjyHyA/YcwM2bNy9evJgUgc/5AAAJuiLdv3//hg0bmpqa5NtINNgVLL2nKPOuXbvoCpY9HJCuZmmX1xUKqTZp/eYtv5B1mQUhzaG23TBO1XQe1liWfOO2k4hGQj4tL0jzternT7FbCbhte7saZNty2dnTwzKDwibu8SwTZWyn841NSFkAQF6gfAyRHBw7dqyjo6O2tnb58uXr1q0jmeDTPgDApa2traqqaunSpfQvafTRo+xnaOww4T5y5EhnZ6f5cMC9e/fySoOhN+PS1T8t3VbrteKtVc+fxAWU2ba3q+LYtryYPXONUlYmbjuJYiQmml6H27YGt22sbeco+qVgMt/YhJVlxD2eZRKObatPR/zGJrwsACAv0D+GaEY/fPhwS0vLli1bFi1ahF+6AUCDLJneGhs3bhQL2+ZtJDKUyu4qEQ8HXL169dy5c2fMmLFp06bm5mZebwDsrhX5fhVNr0NtW4fbdg6vbWuwVb0QLzG1Q8kD1c5VrD4d7RubBGUZcY9nmYRjm8akPFCT+sYmvCwAIC/QP4bY8jZN7XV1datWrVqwYAH+XBIAAfvjyOXLl9fU1NBu9AeGkHCLhwPSm2vDhg3s4YBr1qxJ+HBAykBvQ7oMdpe3+apeiJdo2kEoeWyqTcRtJwmNxER4s/hKXTFpEVSl1vI8uo/Hg5yCxqQ0UJP6xiZBWUbc41km2bGt6bW2G05SmQEAOYLlY4hm9O7ublKK8vLyJUuWLFu2jCb7/QAUPU1NTfReIEvetm1ba2urp79RIS9nt3GTQDc0NLCHA86YMYPeZeyuEt6MDfE0QM+bxVfqFtt2gqrUap47xx3g8TJx20myRnKqMrEu83tFAvKIVCHrIGfR9FrbDceaOe7xLJPs2E7hGxuBVhYAkBdYPoaYExw6dIjcYtOmTfPnz2c3cPNpH4CihPS6pqZm7ty569ev371794EDB6yPIgmH8pOgyw8HXLly5RtvvDFr1iz2k5O8MQN6A1ZVVXXVPhiiywx+r0hAHi/Vl3VB3HaSlJEI/0ggyvtOXe5msxt5BF8HuUEq39h46GUZcY9nmTTHtmnbTrDdBBX1fQEAyDHsH0MkBOx+kl27dpFqz5kzh7Qbwg2KFqba9EZYtWoVu7cq/I8jw2Hvr66urj179lC19Baja1r2k5MNDQ28SYO5b97hasfDM8LbPTCpzMkWYOSNY91KLKlx20mQkZhPDuFPYLDZxh2qOmur11qqeJID1CTH8dw6uW9sGGZZRtzjWSZobFtI5xsbXD0CkLcEfgyxFTia48ktyDDeeOONtWvX4pYSUITQdSY58ezZs5cvX15ZWbl3797utH9QXdxVQvXTNS175iZ7OCC9415503WLOS+uYz3Yv23EHDdmwWsHDx5U19RXDlLVWV291lLFkxxyaG1bs22hyFpgTz3jfyKmBvGtengqyFGCrwAFgd/Y9N7Vo0zQ2NZI5xsbrGoDkNcEfgwJGyC3qKqqIgmYOXMm+/Xp8BtMASgkdu7cSReZM2bMWLZs2Y4dO9ra2jL1447sLUbXtJ2dnST027dvJ5ufNWvW3Llzn1ngugW3bU+1jeA+9cz7EzE1eN+qh6cqxG0nQUaSlG2L5T0RrEZiTQU5SNDKtI7tG5vwsnGPZxlzbGfwGxsipCwAIC8I+xhiNnD48OE9e/ZUVlayFW6iurq6ubnZVREAChb2G5A0+Ok6kzyYVLu1tZVUO4XbtYOgethdJYcOHWIPB1yzZg3Z9pCprha/8VwE2xbLeyJYjcSeKhO3nZhGAooKvj7t/y2j902L5f6Q8G9siJCynLjHs4w5tjP4jU2C608AQD6Q4GNICPfevXtramrWrl07b948ko9169bV1taSjrhaAkBBQaN9586d5L6zZs2iy0u6zqRtsmFy4gyqtoCE23w44PTp08m82Y9WyoinAdIbk5fPEHHbiWkkoKhQbVvc1KSHCN/YhJflxD2eZcyxncFvbGDbABQAiT+GmHCzG0xp7t+4ceOiRYumTZtGIrJp0yaKwY0loGCgwbxr166KigramDp16oIFC9iFJe1mdlVbQ7zLOjo62MMBly1bNmPGDNLuqqoq7S3Guhf9Ud8RidtOTCMBRUUyth3+jU0e2DYAAMhE+hhiKnDkyBGmAtu3b1+xYsWcOXOmTJkyd+7c8vLy6urq+vr6PXv2cB0AIK8geaWBTVZNg7m1tZUG9uzZs8l3t2zZwv4ymDyY3gIxqTaDKmd/msweDkhKzR4OSM5dqT4csLGxkRT80KFDme1S3HYCIwHZJO7xLIOxDQAIJ+rHkFCBgwcPtrW1kZds2rSJdIRs4LXXXps+ffqSJUvID0gLdu3aRTZAukDWwu0AgByDxjANUYKGK10r0gUk2TZ5LXn2zJkzFy9evH79ejJaykDuS8M+btUWsNu45YcDLliwYNq0aRs2bNi9ezfv/f797G8nqGOUn5dMm7jtBEYCsknc41kGYxsAEE5yH0PsBlP2fTf7uQ2SAHLuuXPnkhBMnjx56tSptL169WrScUrdCkBOQpeFNETr6urmz59P14qTJk16/fXX6dKRLhpJcOm6kT33mqyX3JeGfXZUm0FtsbtKqAP19fWbN2+mXlEnly9fzu5poXi6lKX3l/E0wLSI205gJCCbxD2eZTC2AQDhJP0xxBa52fJbe3s7OXd1dfWWLVvIsMkJSLVnzJhBzv3qq6+SwUx0eQWAnIGNSRqcNESnTJlCFjtnzpzFixevXLly06ZNZOHk2fv27Tt06FA2l7Q1mHBTB9jDAcvLy9nDAamr9HYj1aYe7nQhKY+yvF3Sb3Dfz94fS+j/wAe+PGZTRfMVtz7Tt3S4npq5wI8EgGjAtgEAuUOKH0PMBphzd3R00PRfX1/PFrPXrVtH4rJs2TIymEWLFi1wmQ9ADsBG48KFC2lwLl26dMWKFWvXrt28eTO7A6qlpYUuIIVnZ3lJW0Nc1rKHA9Kba82aNeyJQHRV0NjYyJ7LSR2mPAn7CdsGxQZsGwCQO6T1MSScu7u7m5yAtJsMoKmpicy7rq6upqaGFKGioqIcgJyB/XVBdXV1bW0t+xuDtrY2ctaDBw/SMKbB3OueLUM9OX78+OHDh/ft20fvqY0bN9J1wqxZs+iadufOndR/epdFeRogbBsUDDEO5tIR9/9l/qS5W0tKR+pJmQv8MAAAxUQGLvrZIhzT7qNHj9LcT+ZN7nLgwAHyb/KY/fv3kysA0OvQUKQBScOys7OTxicNVBquR44cyTXJlmHXtOKJQNu2bVu+fPm8efNWrlxJV7N0/UCXuAmXt2HboGCAbQMA8o5MfsXGtJuZN+P48ePkAQwScQB6ET4Qjx2jYckHqGvYRA5Ktgx7Z9Eh0BVCS0tLZWXl2rVrly1btnr1arJtcu6uRD8mD9sGBQNsGwCQd8R7QxtN/wDkIHyA5hUk3HSpwB4OWFdXt2XLlvXr12/durWiomL//v2UFHJcsG1QMMC2AQB5R+x/PgIAyBTk0yfchwO2t7c3NDRUV1dXVlbW19fT7tHQZ2/DtkHBANsGAOQdsG0A8gkm3OyuEvZHya2trZ2dnbBtUCTAtgEAeQdsG4A8g4Sb3VXS3d190IU2cN82KBJg2wCAvAO2DUBewha5j7vQRsjCNgHbBgUDbBsAkHfAtgHIY8i5GXw/ANg2KBhg2wCAvAO2DUDhA9sGBQNsGwCQd8C2ASh8YNugYIBtAwDyDtg2AIWPNt9nMvR/4NwvjSbb/twtT8O2QRaAbQMA8g7YNgCFT9/+w+IKA0ad/bnhZNsDvvtk37IxempgGG7EJAj8SEDRA9sGAOQdsG0ACp+/z9z0txkbo4fxU9b9ddoGLdIaJszY+Or8rYePHJ+3onrCzM1aqjVMmLHh2dfWvjg9Uv0i8CMBRY8mr5kMsG0AQDzAtgEofP7w57n3/nlOlPD7P835w1/mVO3a+/rC7ff8KUKpP1GRN3798Mx7/vgGbeupRrjnT3PGvrjs4OGjT7+6JlL9XuBHAooe7UuPCCHyFyllD/7+j3NfeWNLSdlDelJgwLc0AIDEwLYBKHxKSkeWDIgWykaXDBjx8uwt3/3dKyWXPqynph8uefD9Xxy9tbr109/6c8klD+mpwYEfCSh6kvqiZsL0Dc9NWTfBiLeGCTM3b6tubdl78MUZUZt4bsraF15f/7cZG6L3ih8GAKCYgG0DUPgkcatrvyEl/e5/dd62QUNei+WvHvs/8B9fG7e9tu3yW552lvq01ODAjwQUPcl8UTP3oeeXNLUd+PNLK34fpdSf5vzfuNm/eXhmlG9p3G+B5ja2dr6xvOqeP8/TUkMCPwwAQDEB2wag8IFtg4IhmS9qHnz3FSPmr6r5yLUPl1zyoJ6aZnC+BRo5Z0XVHcNfL7l0rJIUGvhhAACKCdg2AIUPbBsUDEkM5v4PfPS6Rxavrfv0N/9M23pqmsF5pwxesLrmVw/N6ls6Qk8NDvwwAKNqXFmfPmXjqvhuKMnkBSC3gG0DUPjAtkHBANtOAddTDQbNdBNUf3WzUoqPmcdArl8pO3MQj3VRkhz0qtXsDlrDZu8AyAtg2wAUPrBtUDDAtlMgWJj1FObNeoy9rIfjyJ4Bqzo8c5BUUk0izJrlmhyMIlG6A0AOAtsGoPCBbYOCAbadAiGK6giun+RkHDRokJxZN2Adve4EbflVuW2pFZttUYxeWaIOAZCDwLYBKHxg26BggG2nQIgBq/JKO7QtK25CtzUyBJdQUiyybRa1djxhlwDIOWDbABQ+sG1QMMC2UyDMtmV5pU0nmyTCNidWMKsObCyhbBseHeDVvJsA5A+wbQAKH9g2KBhg2yngqK2O4r1sT1isUOFAcxaYOQLKOOYsRVtF2onUsdi26B4A+QJsGwAP5yM8wcyikXyJ3gG2DQoG2HYKBAgwx0ul/71MfFMrp8lwgI+bMSxOFWRh9jKmgrsFbbXBtkFeAdsG2cb99DSgj07zM9r8hDbzGMj1Wz+Q6QPdFq9X7U4sRlusdqm82cccBLYNCgbYdgok+OBkyTPpX/FRxmTYqsQahiEbEe6HpF6PkcvBFumU1uIsUQDkNrBtkG2CP/f1FPcz2ogJ//CXP63d8vpnspPB8kFt1uxm1LPaIhN3qtchM4gaSEr6DZ48d9sP73+174CRemr6oXT4x64fu62m9ZLvP+k4ipYaHPiRgKIHtp0CiT6knHTnUSTSJxt91pWVRVlK0OvW9p1dWyVuk3q0/PntYYlz+pbbH7kAaMC2QbbRP5slnI9VP8n9NM7gs6icHY5Rh9uW5QN9nNK81yNL1tBu9TpnXfbAWZcNixLedemwsy8fNnNJxS9HTTvjspFaqjWceekD7+g/+F2XRGrijEuHX/ytP9c27P/KHePPuHSElhoS+JGAoge2nQL6J6OB8xmmfYpZogKQPwDdj1lRyEkJatf2sWnGub3QstlKApDbwLZBtgn73Fc+RWmHtulfkTvhh6yRwVLCVolFtnnDcgqLsZW3xeUS81fVzFtZHSXMXVFF/1bV71tf3jjXSDXD3BXVJBzrtzeS08xZ7pQND5R/ybq6+uaOFZvraVtLDQn8SEDRI77uSBxKh3/omocXran95Df+6NwWpaWmGZxvgYbMX1V955iZfQeMUpJCAz+M7JLQtt3PMDWH6s3huHk5UhGnUoOwz3NLAbPbuf5xC4AF2DbINqGf+9LnKG062STdlTbtmFVbGrN8VFsr5u2L/71MlvJ+phzl87c9e8Wtz0QPA773xKU/eEqLtIbLb332hjv/1tDa+fOR0y+79Tkt1Rouv+Xp/t95/LKBkeoXgR8JKHqif1FzxiXDP/n1P67avPuS7z95xqXDtVRreGfZ0H8ZMESLtAb3W6Dhyzfu+v2f5p5x2agzL43aK34YwPrxnJiUCgHQ28C2QbZxPix1hL26ie6e8FfPciN8ypo5LGUsthwu0KwDYteaWXQyN3H+HjGmMGDUWZcP31DeVPrdJ/qWPainZi7wIwFFTzJf1DhfpNQ1ti/bsDPKFylzllet2FS/emvDHPcbniihtmH/xormKN8CicAPAzg4n6bhH+oazidtLn/UAhAAbBtkG4sAS3ip9L+XiW9q5ZyPaQn389es2oyx2bIwaRk/0qnEa8JanmXJ4SkgiVtdkw39H/jAl8dsqmi+4tZnYnmGiRf4kYCiJ6kvaj5369N0HXj5LU9r8dZw2a3PvTB1/Zsbd11263gtKShQ5Zd8/0ktMjzwwwAM99PV/Pi1kkxeAHIL2DbINhYBlmHJsT2LKmqU16p128wM2yaNgG2DLKB96ZHJUPbQ78bN+cfszSVlD+tJmQv8MAAAxQRsG2SbBLbNxDWeZ1G5WGzZ6sqyYctYbTsoc44A2wYFQ4yDuXTE/X+ZP2nu1pLSkXpS5gI/DABAMQHbBtkmkW27OqsJrSUqANmFnZasYmxEBsRFtm1bXC4B2wYFA2wbAJB3wLZBtklo2667qjns3mzHzctRisgJDD/ZostJ2HauyzZsGxQOsG0AQN4B2wbAIfE1QCBpFM0WsG1QMMC2AQB5B2wbAIa5oh6JZJbdew3YNigYYNsAgLwDtg2AhyvOSQl38iV6B9g2KBhg2wCAvAO2DUDhA9sGBQNsGwCQd8C2ASh8YNugYIBtAwDyDtg2AIUPbBsUDLBtAEDeAdsGoPCBbYOCAbYNAMg7YNsAFD6wbVAwwLYBAHkHbBsAkB5XXOEHAGIGtg0AyDtg2wCA9OjTxw8AxAxsGwCQd2B2BACkR27ZtvMM9GR+bSjZ/KBwwbc0AIB4gG0DANKgu9tX7be/nUfGhvtzQhy7Ijs/CeqnZD4/KGDESKYAAACZA58pABQDVafKJJOgIKvkuDIliYdBPJWyaknyj2fW1fnx55/PI2NCNmPXi00hpiz+b3vGkB8UMmIkU+h9nCGYzAhMNj8AIHvAtgEoAqw+LSwzzLYNTWdBzOrZs21HJuRfydf3CSUqhvyg10jncjG0rADf0gAAYgO2DUARQDrie6O3Vl02jkcwWRG7Cq6pyM45SC0bwbblid9BVlhHEQThVqDaBGFEqH6c+fzBeD5nnkP/dFmvW8oo2sP4DkH4IqtEC2E9C/06gpg5SEmNdpC9SeqXi4nKCvAtDQAgNmDbABQfml6H2bYBMz8xeydyFGfel+Z6WXBV2U1kBVpuQo9x9u0tMdLNHwr3V9meCc96nVastu0G3ockbZuC/SULaEgcqqbaLEQ9zl6Chqjfw6QuFxOVFeBbGgBAbMC2ASg2PBsT8y+TFTmYU7OcR1bicEcx5nk/wqIA8oqcgZlfi9FKZzx/AjyNkwvwk6bekyParBrHi8jHLCLl86B9n0AI/7acL7chuRtKca8b9t08QdNrbTecoMz4lgYAEBuwbQCKDEUBXXiMGrTZWckjreCGO0qIFjhJFtzcWpobZ7qvoRhKcqbzJ0Z3Yk2vDdu2xDiNOjEUpDiLbRNcuLXVdBssJ2vFrN++Kp/LeOdNvDbmAA582YyyAnxLAwCIDdg2AMVEFLUK1zie6sl6WrYdbCQWjAJKBO1oPpHZ/BHgIuudN21XeJ6o0irW0W3bmlNGdlC9UenFTVhPrpHa5SLDLCvAtzQAgNiAbQNQNISohowpZDKary9cyAWFgvmbIMY070c4W0nKrFqXvG+0Q2QyfzRUn2Zn21zq1oJ2ClKw7aA+Kg7qvV7m5VZ+2XY6l4vhZfEtDQAgNmDbABQiup8ZC6s+M3X/UFavtVShjJ6yh9u2O8/7luLuiXnfNRFFAmYOCnUCp4BXl1Kxs2M7skzlj4x/PeOdKP94bLZtNpCCbSfspPyC8lLSa5pHtp3O5WLCsuXl/DxQuOACHimQx4aLM0DYaDWSEmEUUCJoR3sXZDY/AKAXgG0DUIgofhawqkrBmYG9P+/TAp/Aw1MT2jbhTPWcsnEzhaMwpESHRErgOjDHzxssE5nJnwTe6RpkLqOqFzx8ndVYmY5u29yhVae0Iq/pmvVHWS3OPvohq2dPIfxykQgpK4FvaQAAsQHbBqAQScK2JfPjQXUX5YYEIzWxbSs4E39KGhsCyXNSLpFs/uTgqucG5UgN5xMnVskVzbZFK5aTGf51hLerj41EC8ZZJokBHH5BGF5WAt/SAABiA7YNAEiDRLZNc70008sWkCEcmUhGnpPNnyzypYtypJ72ycfPpZnJsWmNngHLBi8H2b99wu1T7aEIMZ6RlEjCts0jsl5sGEEbh/iWBgAQG7BtAEAaRLBtPue7FMHEL2RXWy222bbsgjOTsm31GwaN8K8jCE1PYWMEvqUBAMQGbBsAkAZJOgoAOQq+pQEAxAZsGwCQBi+95DvKzTfzSADyDnxLAwCIDdg2ACANxo/3HWXgQB4JQN6Bb2kAALEB2wYApAFsGxQGGMkAgNiAbQMA0gCOAgoDjGQAQGzAtgEAaQBHAYUBRjIAIDZg2wCANICjgMIAIxkAEBuwbQBAGsBRxDOzzd+a8X+iJehZ2rbfXrH/Zo2JUVZ+Sob+yG0WzB+MFJWEPsC7GMBIBgDEBmwbAJAGY8f6jnLnnTyy2OA/FqMJq2fYjgQnY9tOMLXYwOrT4vHLEW3bzwbbhm0DAOICtg0ASIP77/cdhbaLFE+m5d8a4SIrCW7VOJ7NX4T2bFs8vVn8ymPCny2h+v08XgfEujhrPXyZXPlFSdg2bBsAEBewbQBAGsC2Gf5NIwxDo4kotm0tGAVNrxPbtivolMG+MF98YCQDAGIDtg0ASAM4CoObtOes2i4jRtv2SoXcSaIslrP8bvdg2wyMZABAbMC2AQBpAEfhqJZsXVqOYtvCkpOSbV5KumvFtG0KohW2Es/2YNsMjGQAQGzAtgEAaQBHEfjKa6w0M0JsWwthd4AYRNFlptfyYrboG2ybgZEMAIgN2DYAIA3gKD7enyoOCvDXiLatOXo45qq2FfnOFuuyNwvJ3b5SWGAkAwBiA7YNAEiDO+/0HWXkSB5ZtPAlZDeY5hrpvu1govwhJoe8X3V93jFXymHbVmDbAIDYgG0DANJg4EDfUcaP55FFC78rww2KuHrL3n5gq9Ep23bALSgUnJrM5txgXTXHnSQM2DYAIDZg2wCANIBtKwjN1W7tyLJtC4cWIVimYduMH//YP12PP84jAQAgE8C2AQBpANsGhQFGMigwqsa5F+fGfWWgN4BtAwDSAI4CCgOMZJAUEf9AOZuwr7/8L8o8z6b4pP72Ol68L/pyqEvZALYNAEgDOAooDDCSCwP2t8hJPUMzBfhfPMep2kydoyup5Y+w3UpIvp2k8K56Bqzd0UbFkzuT3h1uCbrNmiuuFXfYNgAgDeAooDDInZHMFk1NX1EeJqOZinEff4Q/BAhsiBDqxoKcR3umTZQ/OQhqSPvrgvCaImZmbfmpEc+MyBZNAXUVDvg7ClJVllN2VnEgZiflU5SsbWuvixwSVsJfbvXY5RMe5VV2sB2IFVZ51GoLAdg2ACANbr7Z/0SGbYP8JVdsO+B7duZeWhCuYjWtBMYT/IW+2ZbIY+1GguXPgIY0e2YhqM9RM7O2pHXciGfGzxbFto1WQmyb91yqVpxD4ZpBy9IUI3dVPgmapmpXR1pI6LT88M31b++1i1hPdNvmNcf55UCOAdsGAKTBFVf4n8ULF/JIAPKOXrftkOVkkcQjPacRmku25Of3DClIgkMaIoTSWdYdvZpFEW5pAYYa1pB2CMYRKUTOzDov9zzKmVFUPoJtm62ILoWcNJ7i5XSC55q8A6p6Wi9sRFAOIeCE8POvHZGbOWrnXeTXURstOl5VCbK5sAMMaLPwgG0DANIAtg0Kg6uu8kfyrFk8MpuEuKlpYzwmQA2ZBJsyyogiwXbxMmzbqomCkIZEkmgn5IiiZmadD9Vly5lxD4piwk+pDKsk+nljWsmS2LGUDVK66mfw6rEGSuedlCVVFDF6bn11ZIlnhxDxwOmotaNTrmQYav/to8iDtavXULDAtgEAaQDbBoVBroxkz1dkCzEdyxRQH1sNFqzZxEKsrE2SrjHRZKEsdGHbx9YQ779UNuSIImZmkUHXGA5mT1iMW3NE6SQsi7Ly6ZICy8NPmnsahamLDa1Xsg2LSI736vgWK7VrnjfZ8hVsvQ03YxP762U9DwEXY+yEJ9tu3gLbBgCkAWwbFAa5bNtCs/RgU0PZ7cKwNSQUSg8Bwu2EhHpqa8hUW7u9uUTMzDoWIm/mmZG9OT7b5r11a3bKuhvCNeVUH9tJY+3KlxMshoJ51PZqZeRBFeGoFbzu6dc2ardF9yw5pTNQHMC2AQBpANsGhUFO2zYh+9ygQDWMrozWhkyL5RWyGLHyzdP4boLmQhqSCppNCyJlZp0JvsYwzwyLEb2Kfur8ZWmBd4x2dxRngHWbddLrMKstXFsJbq7aAVIl1g57L024y2oXTqF5Jby+WZq2vdZ+K2p+7fwXOrBtAEAawLZBYZDrtq1iLnMS5tptGNaGPEvTLdbNxn1Url9KDcTWUKDW29wxSmYWEySX1jOjuaYcwiXV0pZ3jEEF5VVekUeO1E+gdtJmnhpEjSb5yobnF4fv1Mzy21agdbxXnILlWK2DinDjtfzs8ANOWOEB2wYApAFsGxQGeWTbwpP8PF4pq+1Z1dzekBcpMnOvda1IbIsiciqRekPerhBEpapEmXmMdZXXy2yemZRtm47WySa7bHArDHGiKIgscgf0cl6FIcPAit+Q9WwwJGM21T+kRb/DQZVH77Z5Dgsc2DYAIA3OP9/7/O1zqq6ORwKQd/S6bYsVXDkIczXV0Bc7T3HMwLJoEhzekDWVtxXQkCibVEOygIogLE2rKjwza0hk9kl0ZmR4EyGSKsG65zul11CgpgvBler3z49NOlkTgRUaKCMk2GJZtSxoTkw1WC1ZO/mW8yyIbNuszuhHl//AtgEAaQDbBoXBRRf5I3nDBh6ZTcLdVHEpzQgzatsO0tonBc2cZF3TUpNtSNM4Wb20qoiQzOzkWMwtNtvmh6Ytrofqo3lE4aW049WCfNq1nEGmq2SLsKhs6UDCUhFtmw2waKe6UIBtAwDSALYNCgOM5Hyll+5J4Nc/cbarXGKpQdFZ5rjRVFjR/XBs6/EJiGLbXrUJjLzQgG0DANIAjgIKA4zkPIUtwRbTPQkgH4FtAwDSAI4CCgOMZABAbMC2AchbVqw4dffdzl93Ubjzzt75uWk4CigMMJKBzEsvnfrxj/mn6/33nyov5/EApARsG4A8pL3d8WwhByIMHOgkZRM4CigMMJIBg179q67yBwMLb3/7qZEjeQYAkge2DUAe8uMf65OBCDRPZBOahETT3d08EoC8A7YNCPoQk59OowUIN0gV2DYA+cbChfocoIXx43nOLCC3C0D+csYZ/kjO8hdEIHe4/35/GJjh7W/HLSUgNTBBApBv3HmnPgcgICAgIGQhjB3LP4cBSAbYNgD5RsgXnQgICAgI8YUbbuCfwwAkA2wbgHxDvsEUAQEBASFrIct/GAMKBdg2APnGwIH6BICAgICAkIVw//38cxiAZIBtA5BvjB+vTwBayOZ8ILcLQP6CkQyIhGsZCxfynAAkAz5WAMhDrrhCnwNEuOCC7D2Jr73db/eMM3gkAPmIGMkUQNHS3HzqnHOUwSAHcnEAUgIfKwDkIeXlp0pL9ZmAAqn2hg08Txaoq/ObPv98HglA3kEXqGIkv/3tPBIUJ7Nm2YX7qqvwaEiQMrBtAPKWkSN9577oIufXJbP8+zKwbVAYYCQDGbLqH//YWbxgQ+KKK7L6IwagEIFtAwBSBY4CCgOMZABAnMC2AQCpAkcBhQFGMgAgTmDbAIBUgaOAwgAjGQAQJ7BtAECqwFFAYYCRDACIE9g2ACBVyst9R7ngAh4JQN4B2wYAxAlsGwCQKgsX+o5yxRU8EoC8A9eNAIA4gW0DAFIFtg0KA4xkAECcwLYBAKkCRwGFAUYyACBOYNsAgFSBo4DCACMZABAnsG0AQKrAUUBhgJEMAIgT2DYAIFXgKKAwwEgGAMQJbBsAkCpwFFAYYCQDAOIEtg0ASJXx431HGTiQRwKQd8C2AQBxAtsGAKQKbBsUBhjJAIA4gW0DAFIFjgIKA4xkAECcwLYBAKkCRwGFAUYyACBOYNsAgFSBo4DCACMZABAnsG0AQKrAUUBhgJEMAIgT2DYAIFXgKKAwwEgGAMQJbBsAkCojR/qOcvfdPBKAvAO2DQCIE9g2ACBV7r/fdxTaBiBPwUgGAMQJbBsAkCpwlFNVp8rcwy8bxyMEg0S8l0cJZRTtMdNIHcRTWCVamMkTQxGNyg1RU4OSr6oIwEgGAMQJbBsAkCpwFIL7qyq1QqAdnbXathu47CZp2xRMudcYV+ZlljqmqTYL45R+FykYyQCAOIFtAwBSBY7i4LmyrK1cdpk0e7Y9yFtJrhrHi4gYQkTK683+ArmH8G+5rIZi1cK2tWV4bbe4wUgGAMQJbBsAkCpwFIbuxJpeG7ZtiaG4aLZNcOHWVtMFrv1TEW3R3azfvipflGAkAwDiBLYNAEgVOAqDi6zmtcaisnBrq1hHt21rTg5ry23abtuSW4fVU2RgJAMA4gS2DQBIlR//2HeUsWN5ZDGi+jS7jcRc6taCvLBNpGDb5i3XLD+rQbNtcyUbti2AbQMA4gS2DQBIlYEDfUcZP55HFif+jdqeW/sqbLNtTbWJFGxbq4P5tGgXa9vRka8bH3+cRwIAQIaAbQMAUgW27eP9reQgYwlZ2DYzbC7Bxsp0dNtmkUoTLv5zSIxATZv1m6vdeU/VuLI+5oVMYjCSAQBxAtsGAKQKHEWGS7AbFONTbZsQWqzkimbbohVTKsNtW3SD1yZW3L2nDeYJMwcF+zSlGYlh+QUYyQCAOIFtAwBSBY4iIxatKSh6Z9g2oaxPx/C8bcJcupZ7KIJ583cu4/h0oD1TYpl2OKH5fTCSAQBxAtsGoAhJ9Qt3jSQcRaykekFu3b4oK625apqYfs9jQUiztlpss235hMxMyrYj3/hhvVEkP86kDWfMcuxD18kgyXbC/DLp2nbo8PYR2dQXRRn/kV9fAED+ANsGoDAJ+wLdWfDTE8PyBxHdUaw+Lcwo3LYLYEUWZAzb2HXRZNsjML9CmrYdPrwFfjZJqa1fXyT7TgQA5DawbQAKEccxAiWDElP8wl3jhht8P3jpJR5phTzDb9FbyhW3QzALsd8d4S0HancbR7mVAhQgQfYc9HVNtmw7ZHgzlItGz7bFzfq8OIY3AIUJbBuAwiLWL9w1rrjCs4c+pxYu5JFR0PQ6xLaL4kkaIDoB9hwo1dFs+6qr+DCjMGsWj0wZy3h2FZxitNHLd82bpjC8ASgoYNsAFCSBkpHWF+4aKdq2t4AnesHsRA4iidu2JB/WZ3eAYsE+UCnWMqgdog3slK8bLRjDm8e4Y9hu29JgxvAGoBCBbQNQkARJRnpfuGuk5ijcraX1PNO2KbDemEt90JGixjpQg2U74sDOoG2bw5vdmc36oI9n8w9kWZAGPAAg/4FtA1CQBEhGoHtEkxKNFBwlyhfl8tPxsLYNFCwDNeDrGkZ2bdsc3ixG9M4y/r21cCcMsmUAAOQ9sG0AChK7ZFBsWl+4ayTrKOaynxXZsE23ho4UNeZADfq6hpFF27YOb+v3NixYu8UuNfFXkgAUFrBtAAoSq2QEy3ZEKdEIcRRdGrwFPEsbM3V15mvbzFq8grwqsRCYSNmzgdY3Cf/wzVsF1OOSQ1THMsrKJ9Wud8bpYtmCVoRzEOnPeTlsLAWN3KD8VpK17ejDOynbFpnz6HUBAEQAtg1AQWJxkAx84a5RWuqrw4oVPJKh6IjNLFlwWgy4dVX0lC9mB6T2LvaFdu+I7EcXbNtOiHAVYRU4cUIi2bbXq/y3upAryCRIy7bDh7eKOWDM1yvp9yEAINeBbQNQkJj2nIkv3DXOP99XhLo6HslISkd0nzbuEtEy5JCN2LSV+5MkuJZ7zY3VUHGMCd2R6vfzeB0Q66ysdX/ZVUX0hIV8t+3QK8gkuOgi/5xs2MAjQ4jLto2RDwAoCGDbABQWsX7hrhFi28VDlJsKoti2tWAUNL0uKtvOFBjJAIA4gW0DUBRk5gt3DTgKwf3VW5XUdhkx2rZXSry4ylqpmuRjlCpyMJIBAHEC2wagCMjUF+4acBQH1ZKtS8tRbFtYclKyzUtJd62Ytk1BN3jYtgpGMgAgTmDbAIBUgaMwfOUNsNgQ29ZC0B0gVsybgE3YjS56Hti2CkYyACBOYNsAgFSBo3C8P1UcFKC/EW07Kfc1V7WtWO9sgW1rYCQDAOIEtg0ASBU4ioAvIbvBvPE60n3bwUT5Q0wOeb8q1rxjmpTDtlUwkgEAcQLbBgBwdjV1lH3/6b79h/X97P25GPo/wDuag8jPKFQc2Fv29gMT35Rt2ytoBqcmszk3CKsW3i+HpG5fyQeSHcm//bevDHvf51g45+L/01IzH3J5JAMAYgC2DQBwOHLsxI8emFJSOkI3g1wJg7846Fne11xEaK62ipxl21a93wnqUncR2DZGMgAg14BtAwBO9fT0/Oml5X37P0AqYMhBbIGaIyWyhOF9+2ndGPyO0iHba9p4dwEIACMZAJCDwLYBAKcqdu75ty+P7ttvqGoGGQyDncp5GOLuDvncrc88/MLSR/667OEX/DDuxTdHPbf4k1//Y99+JExe8dLhA++dNGtpBe8uAAFgJAMAchDYNgDFTveR4zfcOaFvaXy3aw8+rf/gcz4/4r1XjjrnCyMpnD5g6NmXDd8WsML34vQN7/niI47HsOL9hpx5+fC5K6uv/vF4ngMAGxjJAIDcBLYNQLHz0PNLSvqzhTpZLNIPg/v2f6CkdGTfAWO+8qPxtQ37G1o7axv2TZi+4d1XjBr21ELevErrvkNX3vac8y28V09J2ZghTyyYtnjHmZeN4JkAsIGRDADITWDbABQ1a7c1fuyrf8zwc0hITQaM6ls6/KPXPfKD30+6+9E3/j5z8/rypsNHjncePPI/d7/a/7vPHDh0hPdA5elJa0r6S3/f1u+BD107dsHqmpt+9Teqk2cCwAAjGQCQs8C2AShedja19/v2Y45P+E4wxPGVhEG/L3aw89dgFFk6om//4Z+5+S/3/Gnui9M3zF9Z/eq8bY/9Y+WgoVMu+Nq4b/72pa//6u8lZQ/eeOeLj7+86o9/X64G5z7XT33jj1Llg0tKRwx9Yv7ri8rPufIh6hvvNwAqGMkAgFwGtg1AkdLTc+ruR98oKR3uq0b/B/79+rHf//3EW+6b/IN7JwWF2+5/9Zu//cc7y4ZSfif0G1rSb/A7yx747P/85YXX189YWlFet+eFaRt//MBUMpJzPj+ypNQJTk5qy3lYxH1OWyQi/c3g1Cb1Z/jHbxw3d0XV9T9/sa8rUrzrAEhgJAMAchzYNgBFytRF5WdePsp3gn5DT+s/5JlX1x7qOtp1mMKxoLC/8/CN//u3vv2HnXPl6Itu+jP5ylOT1yzfWD9/VfX4Keu+9ssJA7731FmXDXO/gh+pOIdz/+uwvqUjSpzA3YUbTOkI93Zb+XFpg0v6D73vL/Mmz9v2jgH8G3nedQAkMJIBADkObBuAGKgaV9anT1kyP4udfIm0qNy599+/OtYxBk8ITisd/qOhU3hyKNX1+wbeO+lXD86ctrhi3srqWcsq7x73xoDvPvG+K0e/o79rIf2Hu8JxHwmKYyrOttNKSb/B/379I5f+4Kmy7z0ph0u+/+QVtz599uXqw4n7D/vItQ9v3NF01R3jnQrdSN4DADwwknOLZD7IsvyhB0AvAtsGBcXMQX362H6cz4lXifIZ704GHOtP/lG1tninnFy/27rRIKtdKu9GRPlpwQxw6x8mS4LiPAb4Y9c/UlW/lycH09PTU9ew/5U5W56evPbW+yaTf5SUji4ZMMYNtDHKX+cbMOYDXxr97btf+ZcB/A7aD1398OaKZqrk+ImTcqA612xtOP+qB91v51mXBvft98CQxxfMXFohRcK2gQ5GMiNLH31qdUaD1o8+Ba31bH7oAdCLwLZBQRE25cjxUT7j5TLW/O5MYlaiTzhiylGz2iLNorHw9OTVJc4qHV+o69tv6DsvGf7yG1t4cijtBw8vXlc35In5g4ZO+cnwqb95eNZvH5l119hZ/zduthzuGjv7t4/MmbaonIpMXbD9v25+nBzl93+cwyox+cG9k1xnEk8mHnrhfz/a2Np59R0vwLZBEBjJAv0jzkOPT++jb+Yg6fPJqMr+0ZegdbMQAAUIbBsUFFGnHDcm9CNenwOUfXfOYBitOWlapNvWOKVBN9cgs7dBB5A5tte0ffS6h10hYBO/8yzhXz8Uqc2qXfsGP7bgd+PmjHh60SN/XTbuxeXWMPavbz7y1zfnLneOtv1A95//sfzD1449/6oH97R3sXo0pizY9q+fG+H8bZnfpWEkUq/O30ayIn8pzwsAgJGskqWPPhW1cvtHX+LWzUwAFBywbVBQBH1uG/EhMwjDKGGp2taaZcZx8lFbcgqLsZW3xWWO7qPHb77r5RLnFze8ib//8E99408NLZ08RygHu45uKG/+9v+9fN5VD7s1DD6j7IF3XaKHMy4Z9r4vjHrsHyu/9Zt/XPC1R0v6D+nb74GX39h87PjJw0eOy4H6QxJz6/2vlgwYLUSEnKnfdx7fsXPP5wY+LS8HUuD9AEUPRrJG0AeHEZ+Rjz6OkhLw0Reh9eAGACgUYNugoAj62NbjE368m5OCZZqw1GKbcZx8bknvfy+TtRdepsxz/MTJe/74hvt0BfHN+5B3f37MHHfpLiGT5m4d+eySbdWtx46f2FjRPPDeyR++9hHHLViFehh8xiXuQ9D680caf/M3L91636vf+90rcrjtvslfuO3Z00hihDN99v6SAaOen7puwoyN/1JGNXhddQPvCihuMJJNrB8mhB4flE8Q6aOPodQV9NEXpXWKjulDD4AcAbYNCoqgqcSJ17HlE0SaciytWTsg5hI2IYlda2brpJUR5q+sOffLDytrbKXDhz45nyeHUr173we+8iDpyDmfHzH48QVMa6rq9971yOyLbvpzSdkY6Qt9Lzh64ZuH6yvuU4214BiMlK105GUDn6rcuedLg57rK/8UnxtYZ0CRg5FsYv0wIZx4ndDPl0gffQ5OzVK0tQMRW4/vQw+AHAG2DQqKsClHjXc+3yXplXDzRZpyLK1RlDkv+ZFuq6KQpXxsE0/z3gMDvvuE+827N+X3G/LeK0cNf3rhP2Zv+vusjeHhhjtfZOt89G/JgFH/UvbAT0e8PneFc1BVu/Y++vcV/b/zOBlP337kHK5wOJnZYp77y3xWQXHsxOsMC/2GnHn5qOlLdrw8Z8u7nCcoK8uBtMuOBRQzGMlWrB8mhBmfiY8+VolSr/8pJxHauo8Taes8AAUDbBsUFNGnnESf8EYJSxXRotxIMb1o22bmOCae48dP/mT4VOd3N+Qp/7ODz7ps2Hs+P+LMy4a969IHwoP0h19ucE3lfVeO/uovXpy9rJKaqG/umDhny+duedo1kgdOLx1y4dcfpWzvvmLElT989ou3P3flD5Xw5R89f/ktT5c4QuMvB5aUjrzmJ883tHZeefuz7Cf35PDhax5mhwOKFozkIKwfJoQtPt2PPqsxWzsQsfU4PvQAyClg26CgsH7iE7b4oLwM5/Nfnk/0fQdLDdZpg/LpRV2sPQjKnA6zl1WQNJAxaLO+v1yXMEgm4Yf+zk9Y/+vnRnz6G39+482qfR2Hm/YcmLZox413/m3O8qpH//bmO8pG/e+DM/Z1dO3rPKyFg11H//CXuW61Xs39hr7rkmFT5m9/9tW1/3LpGLVFZyXy7zM38eMBxQpGchBBH2e2+KC8jAQffc6urXTQR1+U1ikq4x96AOQUsG1QUARNI2a8E2PNKpDL2GcYW2sBcZFt2xaXHjW79//7Vx+x3I2aqUAG03/Yaf2HffUXE7qPHmeN9vScGvDdJ/p/94kDXUdYjEbz3oMfulr+ERAynmHX/vT5usZ256t87yf3vKShn/mfxzoP2qsCRQJGcghBHxxmvBMT/hkjl1E/+pyUIC+29SBa67aSABQWsG1QULgf5Sru3BAUH4470XCUyUBOYPjJlpmDoqLatiUqLXp6er7/+4mOoLCbUOMKg6n+K3/4zKN/W/7kxNUP/3XZL0bNfNelDzz28ireD4OfDHvdveFVLAcOKel3/+w3K5+bsk4XFAoDRj0xcTUvCYoSjORwgj7iguLDCfjos1QmVRfweaZhtm4pB0ChAdsGIMM4E1WE+cxGGkUDePbVtWdfMcb9Al2d9TMdTuvv2EZJ6Qj3V69H9y0bc/Udz/NOGGzY0fShqx+SFilJcR64+a6X65s7PvHff9TvrO0/vOx7T9U3R3qOMihUMJJzn5Q+vzL/oQdADgLbBiDjOGs1Kcwf7npSJtd4FqyuOefzI90/KbtPmfXjCv6iY0m/If2+/fgPB7828N5JWrjt/tcu/uaf3VtvxXLg4JJ+9y/fWD+eLwf69VAoKR01bsKb/JBAUYKRnCck/dGX8Q89AHIT2DYAMeDOIcnPOplc4tnXefirv5hQUjpSnu+zHfoPs4d+yu/q9S0d/sP7X93V1HHBV8fpi5elIy+/5ZnG1gP8qEDxgZGcTyTzQZbxDz0AchbYNgCFyfCnFyjPJO6dMDggyHmGnP25kau37B474U1nmVC5K3fw6WUjI/5qCShUMJIBAPkObBuAAuTV+dv69n+gpOzBkgGjcj1c+uiPhry2q7njP28wHjdROvzT3/zz7pYOflSg+MBIBgAUALBtAAqQNzfWPzdl/Quvb8j5sP6FaVtqG/bf99i800rV+1z7DT6tdOiQxxfwQwJFCUYyAKAAgG0DUIC8Nn/bG29W5X6YvnjHturWEydPfuGHz+g35vZ/4ENXP7i3vYsfEihKMJIBAAUAbBuAAuSsy4afeemwPAiXj7n5rpdb9x26+o4X1HtznSepjXhmET8eUKxgJAMACgDYNgAFiPtHWnkQSgaM+eovJpCjXPMT1VH6DTnvK2Oa9xzkxwOKFXm05HLASAYAhADbBqAAKYn39/YyFkpKR954598sjtJ/2IPjl5w4eZIfDyhWMJIBAAUAbBuAAiS/HaXf0A9d83DFzj38YEARg5EMACgAYNsAFCB57SglA0aNfnbJ8RNYDgQYyQCAQgC2DUABkseO0n/YR699ZO3WRn4koLjBSAYAFACwbQAKkPx1FIoZ/Bh+cg9wMJIBAAUAbBuAAiRPHaWk//ALvvrIlqpWfhig6MFIBgAUALBtAAqQvHSUASP79h/2qzEz+DEAgJEMACgIYNsAFBQ9PT0nT57MS0cpe+iDVz1YUYcHOAAfjGQAQAEA2wagQGCeffTo0ZaWlrxzlKt+/HzJgNE/GvoaPxgAXDCSAQAFQLq2TRM8m+MZJwDIK/jAdWGDmY/s/IG9AelYDh8+3NjYWF5e3tDQkHeOcuUPn+3bb2hdYzs/KgBcMJIBAAVAKrbNpIRN8B0dHU1NTTTH17hs3759KwB5wrZt29i4JT2lYbx///7jx4+74u2YNx/uOYz8Nty5cyd5dnNzc3d3N/2bX47SvOfAF374zMB7J584mX9XOyBWMJIBAAVAcrYtZve9e/fW19eTW5OpkKbQ7E7zPXH48OGjAOQJR44cYeO2tbWVhjEJKw3purq6PXv2HDt2LJedm70T6dqgra2t2oXekuyg6M1Ih5NfjtLUduCm37y0blsTPzwAPDCSAQAFQFTbFrM7TeoVFRXkJWQkcGtQYJB/79u3b/fu3TTIW1pa2FJ37ji3uNzt7u5mN43QRS9dLfDee6r95ptv5pGj3PDLCXWN7W8sr+o40M2PEwAPjGQAQAEQybZpjqcJvrOzs7q6uq6u7uDBg3xuB6BAoSvJhoaGysrK9vZ2Gvy9LtzCs+ndt2vXLvLspqYm7XKXqfbChQs3bNhA18P79++ni4dYO3/yqRIReBQAeUjPirt6pl/Fw95NPBYAADJEYtumOf7YsWM0i5Nqy6toABQ8Bw4cqK2tJa9lN5bwt0R2YZ7NvlaqqampqKjYs2cPaTTvogdT7Xnz5q1bt44uiUm1u7u7475OgG2DwoAkW4zknqYlPBYAADJEAttmqr179+6dO3eaEzwAxUBjYyMb//R2yOYiN/NskuaWlhaSbHLo9vZ23icVptpz585du3YtXR5kR7UJISgUeBQAeQhsGwAQK4G2zWZ6msjZ2h6b1AEoTvbs2UNvBFLYLAg3e+uRKx8+fJjdQU7/dnV18a4YMNWeM2dOllWbEIJCgUcBkIfAtgEAsRJo20y16+vrodoAEPv27aupqYl1hZt59vHjxzvcJ/qxv9QM/1tkugxobGzsFdUmhKBQ4FEA9BpV48r6DJrJd5ICtg0AiBW7bTPVbm5upimfTeoAAHpH0PUnbdAbhL9VMgTz7GPHjrW1tVVWVpLWiyf6hdC7qk0IQaHAowCIk5mDgn2a0kSis+2TUMFh2wCAWLHYNk3VNOvTRF5dXU2T9xEAgMeuXbvIuTP1R5NMstlNI+TNFRUVZPOdnZ28sVCYar/xxhtr1qxJRrVTX/8zEYJCgUdZqOqZ6Gej0FPLExzWXy4neeEO/xhq75CTlLKg2HAdOmj0UmLZuCpvW2yyIZ9gzCdp26FD2kdku7xH/mVJZcyrSQCAAkW3bZqqacLu6uqiiT/irA9A8UBvjcrKygMHDhw/fjydJWTh2VQVGTy93UidqXLeTCLCVTum9T8TSRqCbdvq0+s9FQq3bVW1eRBlQfHgGjPDPlCdDJJhq8ij3kpyth0+pAV+Nl+pe+ZLRbyAa0gACh7dtskAaC5vaGigKZzN6wBkkm0Pld421f2HR+Qd9O4gPya7TW15m3k2yTr7+ojcnTaS+hIpwaq269BBakGJKa//mcjGwKNMyDl8EZndw/JPfJRHMCMRuwre0iBP1XZBERKozaGyHYNthwxphnKh6Nl2+6M8hhfHkAagWFBsm2ZrkoDOzs4dO3YcOHCAz+0gK0y9zVm2ySkHZV2y4XeTvDlxr91MpQ9t83Zoc+pt3r6G22hAWiBuIbMXbrsZP6ddXV1VVVX79u07duwYF9xoMM8mM2ZP9Nu5c2d7ezuvNDJhqh3z+p+JJxNO4FEJ0fQ6xLY9NfFX/rjB4Mv3oiVokDojO3jwJh7aad23bRnDroJTjDZi+a55oxSGNAAFjmLbTAV2ufC5PXVUDTPFzREqJTZYiixGxzzKJaicUUpqzY+2RsqEZ3BSmRqGHQvvbYhD+p1leeWsbs3J+mcm8A9OOpfaadV2rSinhhF4OG59Umq0g3dzWXsRnJIOTU1NZLqk3aS5/M0TDJNsynn48OH6+nry7N27dx86dIjXlQwJVrU5ca3/mbiiwAOPSoC3mCeWBpmpyEEkcduWRMT0b1BcBAzS0LHrJAYPe0Yatm0MaR7jjlu7bUsDGEMagOLAt22asNnCNtkATep8ek8F5osuVs1h6Y5BTb2NZ/CjVOxVJTIwWykW5+76xa2RMgkyuMm8ieBjYRFmaQmncpGqtiR1Idv4vZIOVD5mgu+KY+Tohy/1XzuRyqHbj9YtYcTKuDns6XrzGaGjo4Nkl/4NX95mnk1vq/b29rq6Onpntba2Rr85WyOaahNB6pHu+p8JEwUWeFQ43K2ltT3TtinMn+0kmct+UJNixz5KKTZIp93vexKP69Rt2xjS7M5sPkT1MezddqIHaZADAAoR37ZJC9iMvm3bNprF2QSfOlZtcmHuZBMqSdFktKrc3YCsElop2cdEY9ZImfAMToylI2pGlukho7CMVpFcgXIYbgKHp8tRLJd3fpz/S2+7zTwLrGSCgk4eOYsKFWAd8+C98fordlkdon1C6oIDjTYpipWWswu83ok9vw6lp3K0i1vQWmVakDo3NzfTO4XeOPwtJME8mz3Rj3KyJ/rxkinBVHv27NmrV6+m2vbt2xeg2kSAN4fqtJOYaP3PRDYGHhVChC/Nvb8hc/NgbRvoWAdxoGy7qh1pWKdo2+aQZjFindsy5r21cCfc0RPhTQEAKAB826aZu6ura+fOnVVVVXyGT4cgb2JepMfbYzlaVczNSp04B8OuOGopZc/bsUa6O5zQDO6+mt9FORZnx9lknQ7rqlyTn1tq1N30qtj20G20JRcUyawIg/bllt1tJ3+Ugiw7Kynll4sSokoXVgVvTU90kbsj48Yz1AJW9FqkhnhFUiVOjKXFNGloaKB3ysGDB2XlZZJNMeyJfuXl5fX19en/CQRT7VmzZq1ataq6uprEPVi1CbtWBypJ5PU/E08anMCjgjBXta3Ihm26NdSk2LGM7aD7o5Ia1anYtnVIW7+rYYF9Y6PCLy/xV5IAFDrctmnaFreRNDU18Uk+HZh36eKk2RiDRQYLkVqVUoVuXRK2UnzP27FGujucsAzOrtkyy8QT3B1WIKSjSj6OG0PZvf/dSO6RBI/hjclQLUoZQuz7CdEKSprqJrEeSpsObqf4LuugV4OW0YU1LLchYEkBiQosp1Kz3AsXvVuJa00WMuDdu3e3t7ezZ28Lz+7o6Ni1axd5Nr2PUr5pRCZJ1SbiWv8zkWWCR1kEwlvMs9jG7B5Vnb21bWYwXkFelVgUTKTsoGAxx7Yzfk2ndvIlM6jDbTuJIZ2UbYvM/j3fAIDCxLfto0eP0kROlkCzO5/n08GiRJ6OKZFcssJsSKtKFilrK4yQUu6206I1UiY4g7On59aPxS2hYe2rWZlbFbsPREmQquRXC3oneFGj0G0POfGs+WgF3X07/lGwut1d8yg0WIXWLPy42FcW1nPkwXJqWaReGLithlaZEuTZtbW1ra2t5L50pUrQG4dsmMjMO8jFVO3Dhw+HqjYR1/qfiW8SgbYtf2+uBHfFOuA2Vv2L+IBUUDy4I1WBDVvrpaUbaxBm38nYdviQVjG/jTF13HIVCgAoNLhtn/QeTLZ9+/YUnkpmgZmVIjmmJ3mOpfiXLn1GVZJauZtu3kSlpF2tkB4pV2XPwONF3S5uutoFCaW0iZOsprKW5ULs5hEXtzZqnrUp+iHdXqJWxvvmZ41U0GuFkI5XO3QpUzj8gCxZeYpcf0CNgXWE9ELrb8Y4dOhQZWUlW95mN43s3Lmzo6ODJ2eClFSbiGv9z0SWBh6VrJroPm3cJaJmwB3bQIbGcHpDmNNLto17ogAoFnzb7urqamho2LZtW9q3mXr25MFUhwmeYoF6RpbqxvJ89qrkaK/CCKVYD1x8+7JEylXZSzk5RAaG3qaW7taiFZFxi/u9IniFfpzaghcvdY9wWnDzWXunRCYqyIrwZtwdti1tOqiF7HhN+aUEXpJSg1OnVqU1n4+bbKk+LCVN6OqU3iw7duwgzyYnzshNIzKpqHbM638mkjckum8bgIwT9JVN8qT4V5IAABANbts0ix86dGjXrl1bt24ljeATPrDjGFwCwUwe5pNxeGFqOP0RveGKzfpocWMDUTLssFjJ8EO2Nmng5jIritJAGjQ1NbE7Sfh+5kh1VdtOptb/TISgUOBRAOQhsG0AQKz4tn3w4MG6ujqybT7hgwC4efI9ADJMZlU7g+t/JkJQKPAoAPIQ2DYAIFZ82z5w4EBtbS1sG4BeJMOqHTNCUCjwKADyENg2ACBWFNuuqamBbQPQW+SXahNCUCjwKADyENg2ACBWFNumCZ7dtw0AyDL79u3btWvX7Nmz80W1CSEoFHgUAHkIbBsAECuwbQB6n3xUbUIICgUeBUAeAtsGAMQKbBuAXiZPVZsQgkKBRwGQh8C2AQCxAtsGoDfJX9UmhKBQ4FEA5CGwbQBArMC2Aeg18lq1CSEoFHgUAHkIbBsAECuwbQB6B6bas2bNWrlyZT6qNiEEhQKPAiAPgW0DAGIFtg1ALyBUe8WKFVVVVXv27Mk71SaEoFDgUQDkIbBtAECswLYByDayaldWVuapahNCUCjwKADyENg2ACBWLLZNEz8AICY01W5ra6PIfFRtQggKBR4FQB4C2wZFTfujJyc+eurU7J6nLu9p53Egs8C2Acgepmp3dXXlqWoTQlAo8CgA8hDYNkjA+svd4XFHr35SMxvOgBP3zHdH+/zZfN/zbCd+fRWP632oV24/c6hLqQPbBiBLFJhqE8xOWOBRAOQhsO18pf1R51Vz1mXjhLWiq3ZVz0R3wNTyfRcmiOnasFGPtzv/clJkx4l9UfbUObqS8sNRes7rdJLCryi4AatH7RZP7lXgZy9RtzN1Pnsf2DYA2aDwVJtgH9ks8CgA8pDctW22pKoYCdcdM3gC5HmMHh+KpSEPT854SGh1QVXV3iHXk6BXETO7bUmpEY9dZIukcQE62xu2XevasOrESds2X6e3hYSV8MGgHqD8YkmXAaFEtG2v8qjV5i6wbQBipyBVm/A/YWHbIJ/JVdv2xFoxkkS2bXWpBE5jbciBm5wcUqtKtWcegqqKmpm1Ja3FRjx2P1sULTZa4cRp27rU8rNqvXiw2LZ0AvUi2rWTGqz1K/BTZ54N73WPWE902w48/3kGbBuAeClU1SbEZysFHgVAHnLypf/wR3J7BY/tRZJaTuZq5ekI+ZCf33OgoG/5wxsS0hZlZTGsKk+teDe0XY3ImVn35L5FOXZF5SNosbUVv4bQYD/ACPCTKRSTn4Qw2w4KSh8CTiZvTjsbbmblpfeKB40HeQyED1pRVYJsDuwAIxh8TgPbBiBGCli1Cf+DFbYN8hnFtg/s5LG9SLgEK3hOGZSHqWGQ9kVR5CiqTYRU5SX5wsSV1ya7UTOz7oXqsuXY3dNFMSEd0GCVyIeTBdvm3fMXdI0FbO/VsQXn1PEaZEkVRYyjNpojFIln7UY8aXR+tDFDMcrQItT+h48x1q5eQ54B2wYgLgpbtQn/sxK2DfKZnLNtjmckIZ7BzS/oe/YINThYs3GP76mVxSioIYGtKi7QkqWZSi2ImJlFhums2RMW49YcURzDFlZ5/WoSO2mWzicMSj3sZZWPzojRl7Rtr51ksf6LaB4Lr8qivH4pP0S8+hLYX2tbzUGji71YybabY1hsm4QAAJAme/fuLWzVJuQPSh4FQB6Sr7Zt9xiJBC4usDUUqInhtdmqMtU2pOcRM7uHFnjghHHsijfntG2HnEPz5Fsyc3u2qbnlQHgPQ06F5+4JslnxuqdfFyndFt2z5YRtAwACKAbVJvzPR9g2yGfy1LZNqVKILJT2hkzH5RVa1VMQUpXFQSPJnyUz879g7zePncWIXkU/OczaLS8BP1LlEHhXE17ehGKeAQeuvMYZ00+4Z65aH6i49WA9kw53WX7pwkPoAJDx+mZp2jZO/FbU/Nprl5/AtgHIMO3t7TU1NTNnzixs1Sa8T0Yn8CgA8pC8tO1w9zVWdkOxNmTqnWdmYd5jq8rU5RDZjZKZxQQJovXYVV9UQrhoBrbFj1Q+/wmuf6IRVElAvHbCZ/fMpw4n+bqH5xenbv4dfABQSHyM3mixD1HrkCOceC0/O3BbJfkEbBuATEKqXVtbW/Cr2gz2ScoCjwIgD8lD2/aSgi3QKpHRjI3hRYrMqt+nUZW360meWlWCzF6MdaXWy2wee8q2za0xgr96TaTlhZaFfA97knfIlkESivdqBpxJhm/M4izxF4tCSIv+2Q6qPHq3I5//3Aa2DUDGEKq9fPnyioqKwlZtwvs8dQKPAiAPyTnb9rxKCbLXcpsxVUa4qR7sihzekDVVs66IVfluJwXPtPSqQjPzhkRmnwTHrsCbCBFNH969EC+UO5zA3cPx7DagEs90FfXkkdHbVS48Ai3Wa8sN2rFTDdazob1wltdIENm2WZ1pndWcALYNQGZgqj1z5swiUW3C/1SFbYN8Js9sW6RaFCSjtu0grW5SkNwo6apUFZMNWK+KCM7MZNEi0LHZtndompjamkvojmF4FSrnX8N7OYLPlR7kLmk5g3qrZIuwqGzpQMJSEW2bHW+0lym3gW0DkAGEar/55ps7duxobW2lyMJWbUL+eOVRAOQhuXonCTDppfsK+Hqw0q60+pspHaSjS3RopLbmVZayXK0GRWeZ40ZT4TDp1xCXZNHPQxTb9qpNYOT5AWwbgHSxqvbx48cLW7UJ/mnuBh4FQB4C284b2DJq/t9XAIoN2DYAadHrqt3Tuqpn9R96pl/lhBV39dTP4QnxIwTFcRQA8hbYNtBwPlfXDvM/V+te5wkApARsG4DU6WXVPtpBni0sQYSeRYMoieeJE7lRHgVAHgLbBj4nuu2fq7O+dqqrhecBIEkK3LYPHTp00IWOLhyWjfLzkiACRX56e39Ve+kvtPlABGdiiB+5RR4FQB4C2wYCq2qz0DPlCp4JgCQpZNsmvevs7Lzw5sF9PjsoSqCclJ9K8fIgFJze8vLyGTNm9JpqNy3RZgIt9FS8yLPGhtwcjwIgD4FtA0bP3k0nnz1TDAYz9Gx/mmcFIBkK1rYPHTpEbrdnzx7yvJY9B6IEykn5qRRWuBOC00vQm2Xx4sXbt28n1aaDyvKfRfasuEubBhAQEBAQYg1Y3gapUbC2ffDgwX379u3evZskr6m1I0qgnJSfSmF5OyE4vQS9WTZs2NDY2Jh91SZ6Jpdq0wACAgICQrzh2TNPnejmn8IARKZgbZsOp62trbKy0pG8pvYogXKyn9qmsrwWEABOL0FvlvLycrp+OHr06MmTJ9lbKWvI330jICAgIGQnZOdv0EGBUci23draun37dpK8nQ37ogTKye4KgG0nBKeXoDdLVVVVZ2dn9he2iZ5Fg7Q5AAEBAQEh1tAzuZR/BAOQDBbbPlQQkAO1tLRs2bKFJK+2fm+UQDkpP5Vi9xaDEHB6CXqz0FuG3jj09mHvo2zSU/GiNg1ooWftMJ41NuTmeBQAeQj+ShIweupeFyPBGnpW3MWzApAMRWHb1TvbogTYdnRweonetW2iZ/pV2kzgh1cuysLNhXKLPAqAPAS2DQQ9c74lBoMeJnwQN22D1CgK266sa40SYNvRweklet22T7VX9Ey5Qp8PKLxyUc/eTTxPnMiN8igA8hDYNvDparF/rk74YE/rKp4HgCQpCtveUdMcJcC2o4PTS/S+bbv0bHhIzA09k0t7Vv8ha6sv/jwE2wb5DGwbaDifq96Xh87n6oq78MeRIB2Kwra3VTZFCbDt6OD0Ejli272IEBQKPAqAPAS2DQCIlaKw7S07GqIE2HZ0cHoJ2LYQFMdRAMhbYNsAgFgpCtvetH13lADbjg5OLwHbFoLiOAoAeQtsGwAQK0Vh2+u31kcJsO3o4PQSsG0hKI6jAJC3wLYBALFise2DBUFHR0dzc/PmzZtJ8tZu3hklUE7KT6WoLK8FBIDTS8C2haA4jgJA3gLbBgDESlHY9qoNdVECbDs6OL0EbFsIiuMoAOQtsG0AQKwUhW0vX1cTJcC2o4PTS8C2haA4jgJA3gLbBgDESlHY9tLVVVECbDs6OL0EbFsIiuMoAOQtsG0AQKwUhW0vXlkRJcC2o4PTS8C2haA4jgJA3gLbBgDESlHY9oI3d0QJsO3o4PQSsG0hKI6jAJC3wLYBALFSFLY9d8n2KAG2HR2cXgK2LQTFcRQA8hbYNgAgVorCtmct3BolwLajg9NLwLaFoDiOAkDeAtsGAMSKxbZpowBob29vamratGkTSd70+ZujBMpJ+akUleW1gABwegnYthAUx1EAyFtg2wCAWClw296yZctpl/+MPC9K+Jcrfkn5YdtRwOklYNtCUBxHASBvgW0DAGKlkG27ubl5+/btCxYsmDx58oQJE/7617++YIPiKZXyUE7KT6Vg2wnB6SVg20JQHEcBIG+BbQMAYqVgbbujo6O1tbWqqmr16tXz5s2bMWPGtGAolfJQTspPpagsrwUEgNNLwLaFoDiOAkDeAtsGAMRKwdp2Z2fnvn37GhsbKysrN2/evG7durXBUCrloZyUn0pRWV4LCACnl4BtC0FxHAWAvAW2DQCIlYK1baKjo2Pv3r0tLS0NDQ319fW7gqFUykM5KT8WtiOC0wvbFoLiOAoAeQtsGwAQK4Vs252dneR27e3t+1xI9YJgGSgn5cfCdkRwemHbQlAcRwEgb4FtAwBipZBtm0F6Fx1eBkSGn7ho8DKFAmxbCIrjKADkLbBtAECsWGybm1G8TBrYZ+Akvu2xYWS/fiM3mNsgLmyvAogMbFsIiuMoAOQtsG0AQKzAtosZ2HZawLaFoDiOAkDeAtsGAMRKb9r2yJH9+ri4Xk1+zfZof+BAf5vSzMw6ijbyHb9CXoTi9f2Bk3hkv379zBoSFLF1JNfQToK2K45TQYnlOziZFmDbQlAcRwEgb4FtAwBipRdtWxiWp2NkdEK65G09s83MpPyTBjpbSgUE7XsC6CW5oies0KghcZGcRzomB23XPRzbwRinQi9I+8V3Mk1g20JQHEcBIG+BbQMAYiUX7iTxRExSNGVbyezldlXNheXzCoiCtCEtmbp7ErwKv1qzhghFch71JOi74nBwMlMCti0ExXEUAPIW2DYAIFby1rZN3EVULZV2mdsp9XEM21NriFQkHxAnwdgNPhyczAjAtoWgOI4CQN4C2wYAxEqO2baIlLeVzLRtaBvHSeqn+KELEz1K1N1Orpah1hCpSJ6g2S7fDTkc9VQIcDIlYNtCUBxHASBvgW0DAGIll2ybKRnheqG0zTddZGfUkZWStnkJUUSqxmtBtz25BocIRXIZ7SQY5yTscHAyEwLbFoLiOAoAeUtatr3+cqfg+iq+y6nqmei/Oyj01PIEAEAR0lu2nRR5r2WgIIFtyzLBowDIQ9Kw7dk9rKBm20zBtaAbOQCgWIBtA5AisG3ZJHhUstjXBT3CUwHIEKnYdvujoogTTNv2Yzwjn/gojwAAFBl5YdsA5CKwbdk2eFRyBKwLcsJTAcgYmbdtDXbdCNsGoFiBbQOQIrBt2TZ4VETCTSUpjwEgbdK4k8S7PztslEbJAwAoZGDbAKQIbFsICgUeFRHYNsgl4rVtfg/3HT18HwBQdPSubatPrZCeWcFgN2tL0SF3b+sPwCD8J2kEljNK+WWkeGukQqbqiQm1e/l5nu3dS76eDALbFoJCgUclR7ipYEUQZIkYbbv2Drfay3vaeQQAoAjpNdv2jCjIhyidJU0aKOSKhMuW3VqVExnqWrZSolF50xrpk6l6YsLWPRnRlRw/z9bupVBPJoFtC0GhwKOSA7YNcoK4bBur2gAAl1xa25YhozIXSsPkSUuzljdRSyl73o41UidT9cREcHN5dp5dRGKa9aQNbFsICgUelRywbZATRLHtnvluBv0vHYNGqRc/fzaPAAAUMRbb7sge6x0ZWs93JCY6q5dGfFBuFzWR9gaO5IuqzrJqtFLU7MCJfNvZc5OskTqZqicmgs5c3p1nB7+u3j7PsG1mJyzwqOSAbYOcIBXb1v66gAWe6g1dI+A3bgAoTnLRtq2xFClblIHhc7770U6QchmlUrS3TNUTE9Yzao+lyBw+z2r30qgnI8C2ZY3gUQEkuS7IgG2DLAHbBgDESg7atqpLLhRlxGmoVdGelF/dkzFK+XvejjVSJ1P1xIS1ufw7z3r3Uq0nU8C2ZY3gUQEkYyqJUgHINGnctw0AAInJOdsmo1KjKE8iA3TQqpJ3jSp9gkv5m9ZIjUzVExOW9vLtPFOU2b0U6skksG0hKI6jhALbBrkMbBsAECu9ZtuOPQmEEpnCpuRzYMpFGYV82auSYoWlJVNK6octUlSVZj1xY+9e3p1npRYHXn3keuIAti0ExXEUAPIW2DYAIFZ6d20bgDwGti0ExXEUAPIW2DYAIFZg2wCkCGxbCIrjKADkLbBtAECsKLZdU1NDArFv3z5uEwCAYGDbQlAcRwEgb4FtAwBiRbftLVu2tLa2tgMAQqGL0vLycnrLwLa5owCQt8C2AQCx4tv2wYMHa2trN27c2NTUxIUCABAAXZSSasO2fUcBIG+BbQMAYsW37UOHDu3cuXPDhg27d+/mQgEACIAuSnft2kUXqHSZCtt2HAWAvAW2DQCIFW7bJ0+e7Orqqq+vX7duHTk3FwoAQAD0ZmltbaU3C12mwrYdRwEgJymvbbv+5y/27T+072fvDwpf/tqtIryr9PdaamqhpP/wd14y/M7RMw4dPsq7AgAoVnzbPnz4cFNT0/r167du3cqFAgAQQHV19Zo1a3bv3k2XqfT2Ye+jYgO2DXKZxrYDj05Yfu6XxvTtR6o9uG/p8JIBo+IIffsPV1S7H7U14hP//Zc33qyq2b3vZyOn8w4BAIoV37aPHDnS1ta2efPmTZs2tbS0cKcAABjs3bu3oqJiw4YNzc3N3d3dBWnbB7uOjhm/9IxLHnBNRTIJKTzwoy+KoCWlFkr6D3vHgGE/HzntwKEjvB8ApMSMJTs+d8vTJaXD+/Z/wAmfHfztu19++K/LRj67eMQzizIVxjy/5NG/Lb998Gsl/WgAD3aGMbXVb8gtf3i1vLZ1weqa/7r5sZIBI3mfAADFCrftnp6eY8eO7d+/nxxi1apV9fX1XCsAAAYNDQ2NjY3bt28n7T569Ci9fdj7qGCYvnjHNT99sW//YX0/O4TsoaR0ZMaDuxzo2gkPznLgBV/748wlFdX1+24fMoV3BYAkqWvcP2jolHO+MKqvp9oXffPPL83adDCeOzpem7dtwHcfd9az+9GbZdi5Xxr93GtrG9s6ycXf83m+7M2zAgCKFd+22WNJdu7cuXLlym3btnGtAAAYVFZWrlixoqamprOz8/jx44Vk2/XNHb9+aMa7Lh1eUjrCXaUbesVtzzwxcfUTE1c9/kpmwpMTV7/w+vrRzy354NUP8oXzftTQAz+4d/KWqpYFq2o+9Y0/YTkQpMCBriNPT1r9if8e50r2sL6lI9/3xdF3j5tLo5rnyCh727t+9+icd13ituW2eM1PX1izdffGHU1f/cUEZ2xTpHsxyQsAAIoVbtvEyZMnu7u7m5ubN27cuHz58vr6+v0AAIOmpib298SNjY1dXV0F8yeSXd3Hnnl17cdvJFMhTRlO/77/S6MfemHZnvYuniNzkI7c8MsJZ14+wl0OHH7OF0Y98crq3S0dDzy18KzLqGksB4KkWb5x1813veyOKFd/+w254Zd/m7eymidnmsVr67446Hm3oaH0fnnXZSMfeHJhY9uBZ19d++FrH3Hipa9ueBkAQLHi27a4maSysnLp0qVbtmzZu3cv0wsAgKCiomLx4sXl5eXsNpLCuGl77bYGx1TIDxzVHlFSOvQ7d7+ybnsTT84cR46eeHLSmvO+8qCrKQ+Qpnzhh8+u2FRP/n3dzyew1XQICkiKtv1dQ59ceN7VD9PQde596jf44m899txra3tOxvKl0+Ejxx7+67LzrnrIac5ZwB72Xzc/Nn9VTV1j+233v8pihGdjMAMACMW22VO3Gxoa1q9fT8K9c+dO7hcAAJf6+vqWlpY1a9bQxsGDBwvgNpK97V2jxy/+yHVjXXUgUxly6cBnJs7ZwpMzSsXOPd+/Z9LbSbKd1ccHTisdes8f59Q3tz/76poPUwfUO7l5GQCCOXHi5LRFO8q+96TquIP/7cujr/3pC1f9ePyVtz+b8UDNndafrkudFfR3lA79wb2Tq+v3LVxT+/H/ftQZw/Qm8sawCLy7AIBixbdt4uTJk0ePHiWlqKysXLZs2cqVK3fv3s0kAwBAnl1XV7do0SK2sH3kyJG8Xtim64RZSyuvvP0575v3wacPGPrjoVO2VrXQFcTBrqOdB49kMLw6b9vF3/wzvx3c+YPIcTOXVtQ27L/tvlf7fhbLgSBpttW03nrfa+8oHVIyYKQzqJxrxaHsipGGk/tsvtHxhFHOcC0dcd7VD9N1aXX93mFPL3Ke3qP/4a8feI8BAMWKYttseburq6u5uXnz5s3z589ft24dGQZ3DQCKmLa2turq6jlz5qxfv76hoYH9hGT+LmyT5v76oVnvupTc17nDlTlBSb/73//FUR+59uFzvzSaNjIb3lnm/tEYNdd/yHd+98rW6tbFa+s++Y0/YzkQJMue9q4XXt/wmW/95fQBw985YOjZlw3PZjjrsuH/+rmRX7z9ufLaPWu2NpR9/xn3TRT26zm83wCAYkWxbYLs4dixY52dnbt27Vq7du0bb7zBHr/NjQOAooRUu6amhlR75cqVtNHe3p6/d2wfOXbiyYmrLvjaH50lOvaINOdb+KHuv64Nl46IJbg1v+cLo5+bsrZ5T+fv/zT3XZe6f46J5UCQJAe6jr6+sHz2ssqFq2oWra7Ncliwqmbeimq6Xn1x2oZzv/yQ8zhLY/RqgfcbAFCs6LZNkEMcOXKEDKO6unrFihWzZs3asGFDY2Mj0w4Aig262qT3wuzZs998882Kioo9e/Z0d3fn6aNIGls7hz21sOy7T3zm5sfLvvfkJd/PXuj/7Se+9ou/L123s7Zh3yU/eNZxFCwHguT51m9f/vb/vXL74CmDhky5ffBrWQ4/vP+12+5/beayig3ljd7l4n3a0DUD7zoAoFix2Da7n+Tw4cNtbW3kFsuXL585c+bq1avxTEBQhNCwr6uro7fAsmXLysvLW1tb2VP/8vEeksbWAzvq9sxfVbNq8+512xqzGdZubVy/vXHP/kOT521zHkgyAMuBIEWcW496M4zoWzryd4++sXht3Rlk27aboMzAuw4AKFYstk2IG7jJLYRwL168mLZJPvYBUAQ0NjbSgG9paZkxY8abb75Jqk3bhw4dyt/nkJz35QfPv+qhj173yMeuH0v/ZjN86JpHLvnBkzt2tjnPGYzwzTsF3mkAVLRxkvXg/GbkfX+Zu3T9zrMut//JgRl41wEAxYrdtgnyCbIKEu62trbKyspVq1bNmTPn9ddfX7p0KXNuiudWAkABsWfPnoaGBhrzu3btogE/e/bsFStW0JinK8+8Vm3CfWJDL4X+w8/90qh12xu/+7uJzmO2DR0xA+80ACol/dQf/Cff1QZbLEFYNWwbAJA0gbZNMOE+fPjw3r17a2trN2zYsGjRohkzZkydOnXZsmXkH8xIml24qgCQh7S0tNAYpmvI6urq7du3k21Pc1m4cOG6desokq4t6coz35+urWpKdkO/oR+8+sH15Y3fu2cSbBukgzyM39F/yFmXDTv78uFxhzMvHVbSjzUK2wYAJE2YbRPkFidOnOju7m5vbycFKS8vX7169YIFC8i5X331VdJu2iYRr6mp2QpA3lJVVUXDmIR7+vTpkydPpn/nz5+/cuXKbdu2sT9XoGvOPL1XW0ax7f4PGE8Rznxw7nNlzcG2QYbwh3G/oVfe/mzFzj0tew9mPLTuO7Rnf1fb/kNsd+6Kqg98ebSzyA3bBgAkTwLbJsgw2K/eHDp0aM+ePbt27dq+ffvatWuXLl06d+5c0u4pU6aQoEx0eQWAvIKN20mTJr322msk2XPmzFm8eDFdUpKC79y5s62t7cCBAzT4C0C1Ccm2B3/qpj/dOWZG3OHztz3DmoNtg0wh2/a1P3uh+8hxnhAnW6qaz7/6Qdg2ACA1Ets2g4SbhOPIkSMkH+zG1urqajIS0u4VK1aQeS9atGjhwoULFiyYD0CeQMOVoKG7ZMmS5cuXr1mzZvPmzZWVlezPEmiod3d3Hz9+nAZ/Aag24WmKows/G/E6j42TpyatclokI4Ftgwwh2/bVP3m+/UA3T8gch7uPPz1pzW2Dp/5s5PTdLR0Us257w3lXjYFtAwBSI6ptE2yRm+SDnPvQoUMdHR1kJE1NTbt27aqtra2qqqqoqNixY0c5APkD+/ODmpqanTt30jUkDen29nYa3jTIC8mzGbJt/3Dwqzw2o9Ts3rd0ff2Ouj1sd+yLy5wWYdsgc2TBtue8WXX6gGElA8aUlD30nd9NpA+BzZXNsG0AQMokYdsM5twnTpw4duwYGcnhw4dJTQ4cONDZ2Umasn//fv53ZwDkPDRcadDSdSMN4IMHD3Z1ddGQpoFNw7vAPJsRt20v37jr4//9p3eUjTj3S6NXbW2gGNg2yDhZsO0JMzaWXPKQM25LR3zsurHHjp/cWt0C2wYApEzSti1g2s3Mmzh+/DhpCuMoADkPH6zHjtHQZWOYjefCk2xB3LY9+rklfcsedPxjwKhv/Polihk3AbYNMkwWbHt7bVvZD56mcfvha8e+8sZWitlQ3gjbBgCkTOq2rUGOAkCewgdxoRO3bb84fcNpA0b27T/8XZcOf3LiGooZN+FNp0XYNsgcsm1f89MXOg8d4QkZpXnPwb/N2Lhyy262u2EHbBsAkDoZs20AQI4Tt20fOXr8udfWfeu3/3huyjoWgztJQMbR1rY7DsZi2xo0dGHbAICUgW0DUCzItv3jB6bw2Dj5yz9WOC3CtkHmkGx78EevffgXo6b/39jZv31kVnzhd4++8f3fTzrzsmHUImwbAJACsG0AigVfUz47+MuDxk+cs2XS3K30bwYDVTh53lZW7Wvztw38wyTWHGwbZAppGFNw3NdZco43UBPCqmHbAICkgW0DUCzImnJ66ZAzL33grMuG0b8xhbMvH/4vAzwXgW2DDKHaNgV3vTkbwWsOtg0ASBLYNgDFgrEoqC3gxRG8FmHbIEPotk27bO053gDbBgCkDmwbgGKhNxYFvbZg2yBD9NIwZv+6G7BtAECSwLYBKBZ6Y20bd5KADCMN4yH/ecO4wY/PHzN+6ejnlsQXHnph2S9HTz/78mHUImwbAJACsG0AigVJUwZf+N+P/nzk9FjDnWNmXHHL06w52DbIFP4w7jf0up+9cPzESZ4QJ+W1redfjScAAgBSBLYNQLHgaYqjC4OGvMZj4+RPf1/utEhGAtsGGUK27Zh+S5JYvbXhp8Nff2rS6qPHTtDuuu0NeN42ACBlYNsAFAuybd8ej22v2Fx//2PzFq6pZbv4LUmQcbJg26u37j7vqgf7lo44fcCwMeOX9vSc2rijCbYNAEgZ2DYAxYJs23H8luSc5ZXnfvnBvgNGfuiah+eurKEY2DbIOFmw7Renb+hbNtq5S7v/8A9f+8iJkz1bq1tg2wCAlIFtA1AsxG3bo55dXFL2kOMfpaO++duXKWbcBPxyO8gwWbDtNzfuOufK0TSM+w4Ydc8f51DMpspm2DYAIGVg2wAUC3Hb9pQF28+4dETJgNGn9R/60qxNFAPbBhlHs+2Og0d4QuY4fuLknBVVvx075/FXVnV1H6MY3LcNAEgH2DYAxULctt199PhrC7bd86f50xbtYDFjX4Rtgwwj2/b1P//riaw8k2RHHZ5JAgBIHdg2AMWCbNs/GT6Vx8bJ4y+vdFqEbYPMIdn2kM/c/Jfnp657bf62iXO2ZDZMmruVqp08byttT1tUPmb8kvd8foTr1rBtAEDSwLYBKBYk2x582Q+eevzlVRQe+8fKDAaq8MmJq1m1z09df9Ov/+60SO3CtkGG8G2bAslu6YhshP7DnTeO0yhsGwCQNLBtAIoFVVOGlgwYFXMY3bf/MNEcbBtkBGUY90KAbQMAkga2DUCx0JuaAtsGGQK2DQDIO2DbABQLsG1QAKhf0QwpKR0ZexgwyrmZBHeSAABSBbYNQLGgaUrf0uExhxEk2V5zsG2QGaRhPPi8r4z59t0v33rf5B/cOzG+cPuQ167/+V/fdQmNW2oatg0ASBrYNgDFgqcppAuDL/neE2MnvDl2wrJHXsxwGOttPPbyyhvvnOC0SO3CtkGG8G2739Cr7hi/p73rZE/P8RMnMxhOnOzhjZ06RZXTv6u31uN52wCAlIFtA1AsSLY9ZNCQ13hsnPzxb/jldpBhZNu+5qfPH+w6yhMySlf3sfLavbtbOtjuxh2NsG0AQMrAtgEoFmTbvj0e216wquaxiWvnraxmu/gtSZBxZNuO6Zfb65s7rvvZi2dcOuqD1zz8xpuVFENDF7YNAEgZ2DYAxYJs23H8luTsZZX/esWYkkse/tcrhs9YUkEx4yZgbRtkmCzY9j9mb+47YJTj1v2H/9fNfz5+4uSWymbYNgAgZWDbABQLcdv2yGcWk2o7TQwY9Y1f/51isLYNMk4WbPv1ReXOo+IplI649md/PXGyZzNsGwCQBrBtAIqFLKxtn3Plg33LHjrrsuGT5m6jGKxtg4yTBdvu6j425IkFH7r24St/+NzmqhaKWbe9AbYNAEgZ2DYAxYJs2zHdtz1nedXgJxZMmrOV7cK2QcaRbfvan75w5OgJnhAnW6uaz7/6Qdg2ACA1YNsAFAuybQ8amo1nkjyKZ5KATCPb9uW3PLVq6+6KnXvL6/ZkNlTs3FO9e19V/b4dO/dU1e+dPG/r+7/o3skN2wYAJA9sG4BiQdKUwaXffXz0+CVjnl9C/8YUxk1Y/rVfvui2SIIC2waZwR/Gnx181uXDPvn1P178zT9/Os7wmZv/8h83jDu9lMSamoZtAwCSBrYNQLEgaQoFRxriD/4yJGwbZARlGNM2+3PGeMPwvv1p0LJ2YdsAgKSBbQNQLKi2TYF24w5eW7BtkCGMYZzlANsGACQNbBuAYsFY2447sG/e3eZg2yBDGMN4aFaCsGpnYCdp24N51wEAxQpsG4BiwdAU7a6POEKqtt1/OO80ACrSMB78zkuGfvCahz5y3SMfvvbh+MJHrx/7b18ec5rTrhuSsm0nwxDedQBAsQLbBqBYkDXl8oFPPfbKqscnrqZ/Mxgef2X1ExNX07+0TRvf/O1LrLlkbNu5E/crP3qedxoAFX8Y9xt6xW1Pb6xorm3Yn/Gws6m9ac+B+uYO2q5rbJ+2uPzcL412FrmTsu3+w84oe+DB8Ut51wEAxQpsG4BiwdMURxd+Mnwqj42TJ15Z6bToLHJHs+1+Q0v6D/vu715u23+IVwGAimzb1/3sr0eOHucJmabr8FG+derUtuqW869O8tdtSkec++Uxz09dx6sAABQxsG0AigXZtuP4LcnuI8fnLK/6w1/mzV1exWLGvpjML7f3e6CkdNg9f5zTHZs/gQJAtu2YfktyX+fhB8cvveanf71j2OsNLZ0Uk+RvSQ7uWzry4zf+ecGqGlYhAKDIgW0DUCzEbduvvLHl7Z8d0rf/8LM+N+LVec4vtydh2/0fOOPSEeP+tpxVBUAQWbDtqYvKSZf7lo4oGTDmW7956eTJnk0VTZFte0jf0uFl3396c0Uzrw4AUPTAtgEoFuK27VHPLelb5v669YCRN9/1D4oZNyGabfd/4L1Xjn5+6npWDwAhZMG2J0zf0LdstPOk7dKRn7n5MbLtLVXNkWybdvsPu/Znf61r3M/rAgAA2DYAxUPctj1t8Y53f37U6QOGf+jqh9h36OP+//buLsTKIo7juJctZKA33WoX3XXRhe66mFBXadJNLxdd2AuxYFk3dpUZru5uZiZLmRBGYIgKJb1gGyhUdpEKZmZUSytKZi9GQbCotBY2zzP/mWdmnjkvDzh7nj3n++GAe+aZ53/GnZH/76yru7flT27f1Nc/evvqHe9/mn0tHGhpFtL25Pk/7nny7cUrd9zxwM5DRyfVyNeTbXxtW11dOvzYC+/9/ue0rgMAGmkb6BWp03b2F+6Tv+09dPrU97/okVbfSbKpb2B0+aO7vzz9k54PtBSk7b+nb3zaVq5cnTl+5sK5i/Il6lM/tPq+7f4tC1eMbdx5ZPpy8W8rAUAjbQO9wk3ba0c+kNGUdh04lqeiWNpWg/2j9z/zztSFv2Q20AY3bd+3bs/lqzNyIaUzP/66aGX+XVLRtN0/euvdW1/fd+zav//JDQDgIG0DvaKIKUs2LXlk18ibnyV9jO3+fPW6PfrlwrStUsvA6Jrn373E37mjIvcYL161/YmNB58a+XDtloSPp0c+eui5/QuWq3eJ6qVLaXtgbNHK7Qc++UbWBwAlpG2gVzgxRSfg4fSP4suQOm2v2XCwb+Cl+cvGNrx2+PJV/s4dlZWOsfvz1dM97PdnF2l74V0jfctevvPhN46ePCeLA4AY0jbQK/yYohKwyg2JH9nXAvVrSdp+cP3+BSu27TpwQtYEVBQe4+yMzc7DvFyetr/46vxN2c9kfevsz/z3IwBaIG0DvaIUU2bxsXTzonu3nfj2wrNbD+2bOC0LAqrr5DHOHlna3rjz8JHjZx9/8eDFS9nPvgGA5kjbQK+4Zdnm+QPDHXmojHLbqldOfncx0f8ggd7RwWOsHjf3D6u4v/7Vj6ev/DNzjX8TCaAtpG0AAAAgFdI2AAAAkAppGwAAAEiFtA0AAACkQtoGAAAAUiFtAwAAAKmQtgEAAIBUSNtAL5gaH5ynDI5PyQAAAJgVpG2gpiaGsnzsBWQZmjc0IQNtx+g2ppniVl2iub8w5/de0L893kt0L94uApjDSNtAXZXidhE7beSUEBLPoI4WYaWUtLUaZJvYykrLKn2mUAORXTG7ydtFw/wBNlr9QQYwJ5G2gdqSLm0asNuYzVgwpaGmYcUU9q+q0h2PK8HKSgt1PyX1SVfQ5HAW21LETntgzQ62OsEyr9EWF5U9NTgRsZU1OL+CYwx0H9I2UF/SqXUS0Z15cGgo/0V3ZG9CrkH+dMJKOfKYkSaJp92ysrzYksxNbZcanzJTi2Ky1Ba1UA+yW2b73N0Kzl6To6c5x6PMFPavqtIdPxHBysKFqufOEuVz0flVA7jRSNtAfZnmnGUR/bFqxPYDe93p3dlTn74YvWTvNG1emHqiSlk1HOYn93nFUjLmrMfM8tNZeR5qwTsLepd4u5ixd3mCFwLQNUjbQI2FHTzvw7phqwYeNGdp5Lazu5dLbT/o+ua6R09uo6ypovmD+nb9pGqpYJGKzCpK5KLLQOe526U/VntkPyhtnJnu0Rejl+ydclAMU09UKauGw1PqPq9YSsac9ZhZ/gHWyrMBdAnSNlBntgGP5y1f92jd/ofG/eZc6vZGEXUibT/o+kERdbVi2Yw7qteqJ1QuVR4zJfxlx+5FHTg7k5+EfIvk/PJ20dP4CoA5j7QN1Jr0a800YnfQdvJYt7fKF8Pg4CtiQsWymr59cHxCX5cXqVxKxpxFFuuSgVzTwugkuzW8XcyZEsGyGxxsAF2CtA3Um7ThjO3Qbtcv2raZ6XZsNTOfELZ9UyEfyG70u7+bCaqUtZxVO7UrlzLrkFHzNFht42Wg46InwR20u9Z0F8sXpUZwFAy5quZXLKvp22fp7WJ5FoAuQ9oGas4mE6dDm/7sd+hi1JXPiF+Su+0rBOQFW5eNxI/iJvdi9VKxtRVzovUiq0HnODtoD6u7b3bQzgxOTPR4mAr5QHZjUSZjLmejVcpa3rmztSuXMuuQUfO0/JmwAwC6EWkbqDtp8V4bb9ikbT8XfptX04sY4dwb3hWGhhZlg8k5c0fFFUZKecHHrxfWysVWg86x++dsTLFx7n5Gt1PPiF+Su/0TUvCPVsAtGzkyxU3uxeqlYmszc+LVFPeTAqALkLYBAAlJ4PRyqAmapVwZJlC5S4bV9CK+OveWc2uQepuXDSbnzB0VVxgp5QfupqsWpdcEMLeRtgEAAIBUSNsAAABAKqRtAAAAIBXSNgAAAJAKaRsAAABIhbQNAAAApELaBgAAAFIhbQMAAACpkLYBAACAVEjbAAAAQCqkbQAAACAV0jYAAACQCmkbAAAASIW0DQAAAKRx/fr/G9ru87OIxCQAAAAASUVORK5CYII=;" vertex="1" parent="1">
          <mxGeometry x="750" y="290" width="520" height="346" as="geometry"/>
        </mxCell>
      </root>
    </mxGraphModel>
  </diagram>
</mxfile>
